<svg viewBox="0 0 1024 1024" xmlns="http://www.w3.org/2000/svg" role="img" aria-label="orangecheck mark">
  <rect width="1024" height="1024" fill="#fafafa"/>
  <path d="M518 856Q463 820 438.5 785.5Q414 751 414 711Q414 657 462.5 613.0Q511 569 711 473Q766 509 790.5 543.5Q815 578 815 621Q815 702 550 840ZM930 1460V1235Q845 1265 779.0 1279.5Q713 1294 659 1294Q583 1294 540.5 1265.0Q498 1236 498 1184Q498 1109 701 1004Q720 994 729 989Q943 879 1002.0 808.5Q1061 738 1061 637Q1061 548 1013.5 484.0Q966 420 864 373Q934 323 966.5 261.5Q999 200 999 119Q999 -28 894.5 -111.5Q790 -195 604 -195Q515 -195 429.0 -180.5Q343 -166 258 -137V92Q343 62 424.0 46.5Q505 31 578 31Q655 31 696.0 59.5Q737 88 737 141Q737 211 523 326L512 332L486 346Q170 516 170 688Q170 782 222.0 851.5Q274 921 371 954Q300 1004 268.0 1064.0Q236 1124 236 1206Q236 1348 340.0 1434.0Q444 1520 616 1520Q690 1520 768.5 1505.0Q847 1490 930 1460Z" fill="#da6736" transform="translate(225.3457 820.5434) scale(0.465726 -0.465726)"/>
</svg>
