<svg viewBox="0 0 1024 1024" xmlns="http://www.w3.org/2000/svg" role="img" aria-label="oc·cosign aurora mark">
  <rect width="1024" height="1024" fill="#0a0a0a"/>
  <defs><radialGradient id="xoc·cosign aurora markf0" cx="50%" cy="50%" r="50%"><stop offset="0%" stop-color="#f97316" stop-opacity="0.96"/><stop offset="52%" stop-color="#f97316" stop-opacity="0.30"/><stop offset="100%" stop-color="#f97316" stop-opacity="0"/></radialGradient><radialGradient id="xoc·cosign aurora markf1" cx="50%" cy="50%" r="50%"><stop offset="0%" stop-color="#f97316" stop-opacity="0.96"/><stop offset="52%" stop-color="#f97316" stop-opacity="0.30"/><stop offset="100%" stop-color="#f97316" stop-opacity="0"/></radialGradient><radialGradient id="xoc·cosign aurora markf2" cx="50%" cy="50%" r="50%"><stop offset="0%" stop-color="#f97316" stop-opacity="0.82"/><stop offset="52%" stop-color="#f97316" stop-opacity="0.26"/><stop offset="100%" stop-color="#f97316" stop-opacity="0"/></radialGradient><radialGradient id="xoc·cosign aurora markf3" cx="50%" cy="50%" r="50%"><stop offset="0%" stop-color="#34c98a" stop-opacity="0.60"/><stop offset="52%" stop-color="#34c98a" stop-opacity="0.19"/><stop offset="100%" stop-color="#34c98a" stop-opacity="0"/></radialGradient><radialGradient id="xoc·cosign aurora markf4" cx="50%" cy="50%" r="50%"><stop offset="0%" stop-color="#3f9fd1" stop-opacity="0.60"/><stop offset="52%" stop-color="#3f9fd1" stop-opacity="0.19"/><stop offset="100%" stop-color="#3f9fd1" stop-opacity="0"/></radialGradient><filter id="xoc·cosign aurora markb" x="-30%" y="-30%" width="160%" height="160%"><feGaussianBlur stdDeviation="87.0"/></filter><clipPath id="xoc·cosign aurora markc"><g transform="scale(42.666667 42.666667)"><rect x="3" y="3" width="18" height="18" fill="#ffffff"/><rect x="6" y="6" width="12" height="12" fill="none" stroke="#ffffff" stroke-width="1.5"/><circle cx="9.2" cy="10.4" r="1.65" fill="#ffffff"/><circle cx="14.8" cy="10.4" r="1.65" fill="#ffffff"/><path d="M6.5 16.6 C 6.5 14.9, 7.6 14.1, 9.2 14.1 C 10.8 14.1, 11.9 14.9, 11.9 16.6" fill="none" stroke="#ffffff" stroke-width="1.5" stroke-linecap="square"/><path d="M12.1 16.6 C 12.1 14.9, 13.2 14.1, 14.8 14.1 C 16.4 14.1, 17.5 14.9, 17.5 16.6" fill="none" stroke="#ffffff" stroke-width="1.5" stroke-linecap="square"/></g></clipPath></defs><g clip-path="url(#xoc·cosign aurora markc)"><rect width="1024" height="1024" fill="#141414"/><g opacity="1.0" filter="url(#xoc·cosign aurora markb)"><circle cx="204.8" cy="163.8" r="675.8" fill="url(#xoc·cosign aurora markf0)"/><circle cx="532.5" cy="563.2" r="593.9" fill="url(#xoc·cosign aurora markf1)"/><circle cx="184.3" cy="901.1" r="573.4" fill="url(#xoc·cosign aurora markf2)"/><circle cx="880.6" cy="153.6" r="512.0" fill="url(#xoc·cosign aurora markf3)"/><circle cx="901.1" cy="860.2" r="532.5" fill="url(#xoc·cosign aurora markf4)"/></g></g><g transform="scale(42.666667 42.666667)"><rect x="3" y="3" width="18" height="18" fill="none"/><rect x="6" y="6" width="12" height="12" fill="none" stroke="#0a0a0a" stroke-width="1.5"/><circle cx="9.2" cy="10.4" r="1.65" fill="#0a0a0a"/><circle cx="14.8" cy="10.4" r="1.65" fill="#0a0a0a"/><path d="M6.5 16.6 C 6.5 14.9, 7.6 14.1, 9.2 14.1 C 10.8 14.1, 11.9 14.9, 11.9 16.6" fill="none" stroke="#0a0a0a" stroke-width="1.5" stroke-linecap="square"/><path d="M12.1 16.6 C 12.1 14.9, 13.2 14.1, 14.8 14.1 C 16.4 14.1, 17.5 14.9, 17.5 16.6" fill="none" stroke="#0a0a0a" stroke-width="1.5" stroke-linecap="square"/></g>
</svg>
