<svg xmlns="http://www.w3.org/2000/svg" width="800" height="800" viewBox="0 0 800 800" role="img" aria-label="oc·attest — YouTube avatar (gold/dark)">
  <circle cx="400.0" cy="400.0" r="400.0" fill="#0a0a0a"/>
  <g transform="translate(152.0 152.0) scale(0.48438)" fill="#fafafa"><g transform="scale(42.666667 42.666667)"><path d="M3.85 8.62a4 4 0 0 1 4.78-4.77 4 4 0 0 1 6.74 0 4 4 0 0 1 4.78 4.78 4 4 0 0 1 0 6.74 4 4 0 0 1-4.77 4.78 4 4 0 0 1-6.75 0 4 4 0 0 1-4.78-4.77 4 4 0 0 1 0-6.76Z" fill="#e3b831" stroke="#e3b831" stroke-width="0.5"/><path d="M9 12 l2 2 l4 -4" fill="none" stroke="#0a0a0a" stroke-width="2" stroke-linecap="round" stroke-linejoin="round"/></g></g>
</svg>
