<svg viewBox="0 0 1024 1024" xmlns="http://www.w3.org/2000/svg" role="img" aria-label="oc·chat aurora mark">
  <rect width="1024" height="1024" fill="#fafafa"/>
  <g transform="translate(204 204)">
    <defs><radialGradient id="xoc·chat aurora markf0" cx="50%" cy="50%" r="50%"><stop offset="0%" stop-color="#e3b831" stop-opacity="0.96"/><stop offset="52%" stop-color="#e3b831" stop-opacity="0.30"/><stop offset="100%" stop-color="#e3b831" stop-opacity="0"/></radialGradient><radialGradient id="xoc·chat aurora markf1" cx="50%" cy="50%" r="50%"><stop offset="0%" stop-color="#e3b831" stop-opacity="0.96"/><stop offset="52%" stop-color="#e3b831" stop-opacity="0.30"/><stop offset="100%" stop-color="#e3b831" stop-opacity="0"/></radialGradient><radialGradient id="xoc·chat aurora markf2" cx="50%" cy="50%" r="50%"><stop offset="0%" stop-color="#e3b831" stop-opacity="0.82"/><stop offset="52%" stop-color="#e3b831" stop-opacity="0.26"/><stop offset="100%" stop-color="#e3b831" stop-opacity="0"/></radialGradient><radialGradient id="xoc·chat aurora markf3" cx="50%" cy="50%" r="50%"><stop offset="0%" stop-color="#34c98a" stop-opacity="0.60"/><stop offset="52%" stop-color="#34c98a" stop-opacity="0.19"/><stop offset="100%" stop-color="#34c98a" stop-opacity="0"/></radialGradient><radialGradient id="xoc·chat aurora markf4" cx="50%" cy="50%" r="50%"><stop offset="0%" stop-color="#3f9fd1" stop-opacity="0.60"/><stop offset="52%" stop-color="#3f9fd1" stop-opacity="0.19"/><stop offset="100%" stop-color="#3f9fd1" stop-opacity="0"/></radialGradient><filter id="xoc·chat aurora markb" x="-30%" y="-30%" width="160%" height="160%"><feGaussianBlur stdDeviation="52.4"/></filter><clipPath id="xoc·chat aurora markc"><g transform="scale(25.666667 25.666667)"><path d="M5 4 H19 A2 2 0 0 1 21 6 V13 A2 2 0 0 1 19 15 H11 L7 19 V15 H5 A2 2 0 0 1 3 13 V6 A2 2 0 0 1 5 4 Z" fill="#ffffff" stroke="#ffffff" stroke-width="1.6" stroke-linejoin="round"/><circle cx="8" cy="9.5" r="1.15" fill="#ffffff"/><circle cx="12" cy="9.5" r="1.15" fill="#ffffff"/><circle cx="16" cy="9.5" r="1.15" fill="#ffffff"/></g></clipPath></defs><g clip-path="url(#xoc·chat aurora markc)"><rect width="616" height="616" fill="#ffffff"/><g opacity="0.95" filter="url(#xoc·chat aurora markb)"><circle cx="123.2" cy="98.6" r="406.6" fill="url(#xoc·chat aurora markf0)"/><circle cx="320.3" cy="338.8" r="357.3" fill="url(#xoc·chat aurora markf1)"/><circle cx="110.9" cy="542.1" r="345.0" fill="url(#xoc·chat aurora markf2)"/><circle cx="529.8" cy="92.4" r="308.0" fill="url(#xoc·chat aurora markf3)"/><circle cx="542.1" cy="517.4" r="320.3" fill="url(#xoc·chat aurora markf4)"/></g></g><g transform="scale(25.666667 25.666667)"><path d="M5 4 H19 A2 2 0 0 1 21 6 V13 A2 2 0 0 1 19 15 H11 L7 19 V15 H5 A2 2 0 0 1 3 13 V6 A2 2 0 0 1 5 4 Z" fill="none" stroke="#0a0a0a" stroke-width="1.6" stroke-linejoin="round"/><circle cx="8" cy="9.5" r="1.15" fill="#0a0a0a"/><circle cx="12" cy="9.5" r="1.15" fill="#0a0a0a"/><circle cx="16" cy="9.5" r="1.15" fill="#0a0a0a"/></g>
  </g>
</svg>
