<svg viewBox="0 0 1200 630" xmlns="http://www.w3.org/2000/svg" role="img" aria-label="oc·analytics aurora mark">
  <rect width="1200" height="630" fill="#0a0a0a"/>
  <g transform="translate(427 142)">
    <defs><radialGradient id="xoc·analytics aurora markf0" cx="50%" cy="50%" r="50%"><stop offset="0%" stop-color="#55d671" stop-opacity="0.96"/><stop offset="52%" stop-color="#55d671" stop-opacity="0.30"/><stop offset="100%" stop-color="#55d671" stop-opacity="0"/></radialGradient><radialGradient id="xoc·analytics aurora markf1" cx="50%" cy="50%" r="50%"><stop offset="0%" stop-color="#55d671" stop-opacity="0.96"/><stop offset="52%" stop-color="#55d671" stop-opacity="0.30"/><stop offset="100%" stop-color="#55d671" stop-opacity="0"/></radialGradient><radialGradient id="xoc·analytics aurora markf2" cx="50%" cy="50%" r="50%"><stop offset="0%" stop-color="#55d671" stop-opacity="0.82"/><stop offset="52%" stop-color="#55d671" stop-opacity="0.26"/><stop offset="100%" stop-color="#55d671" stop-opacity="0"/></radialGradient><radialGradient id="xoc·analytics aurora markf3" cx="50%" cy="50%" r="50%"><stop offset="0%" stop-color="#34c98a" stop-opacity="0.60"/><stop offset="52%" stop-color="#34c98a" stop-opacity="0.19"/><stop offset="100%" stop-color="#34c98a" stop-opacity="0"/></radialGradient><radialGradient id="xoc·analytics aurora markf4" cx="50%" cy="50%" r="50%"><stop offset="0%" stop-color="#3f9fd1" stop-opacity="0.60"/><stop offset="52%" stop-color="#3f9fd1" stop-opacity="0.19"/><stop offset="100%" stop-color="#3f9fd1" stop-opacity="0"/></radialGradient><filter id="xoc·analytics aurora markb" x="-30%" y="-30%" width="160%" height="160%"><feGaussianBlur stdDeviation="29.4"/></filter><clipPath id="xoc·analytics aurora markc"><g transform="scale(14.416667 14.416667)"><rect x="3" y="3" width="18" height="18" fill="#ffffff"/><path d="M6 17 L10 12 L14 15 L18 8" fill="none" stroke="#ffffff" stroke-width="1.8" stroke-linecap="square" stroke-linejoin="miter"/><rect x="16.6" y="6.6" width="2.8" height="2.8" fill="#ffffff"/></g></clipPath></defs><g clip-path="url(#xoc·analytics aurora markc)"><rect width="346" height="346" fill="#141414"/><g opacity="1.0" filter="url(#xoc·analytics aurora markb)"><circle cx="69.2" cy="55.4" r="228.4" fill="url(#xoc·analytics aurora markf0)"/><circle cx="179.9" cy="190.3" r="200.7" fill="url(#xoc·analytics aurora markf1)"/><circle cx="62.3" cy="304.5" r="193.8" fill="url(#xoc·analytics aurora markf2)"/><circle cx="297.6" cy="51.9" r="173.0" fill="url(#xoc·analytics aurora markf3)"/><circle cx="304.5" cy="290.6" r="179.9" fill="url(#xoc·analytics aurora markf4)"/></g></g><g transform="scale(14.416667 14.416667)"><rect x="3" y="3" width="18" height="18" fill="none"/><path d="M6 17 L10 12 L14 15 L18 8" fill="none" stroke="#0a0a0a" stroke-width="1.8" stroke-linecap="square" stroke-linejoin="miter"/><rect x="16.6" y="6.6" width="2.8" height="2.8" fill="#0a0a0a"/></g>
  </g>
</svg>
