<svg xmlns="http://www.w3.org/2000/svg" width="1584" height="396" viewBox="0 0 1584 396" role="img" aria-label="oc·pledge — linkedin banner (gold/dark)">
  <rect width="1584" height="396" fill="#0a0a0a"/>
  <filter id="aublur" x="-20%" y="-20%" width="140%" height="140%"><feGaussianBlur stdDeviation="47.5"/></filter>
  <mask id="aumask"><rect width="1584" height="396" fill="url(#aufade)"/></mask>
  <defs><radialGradient id="au0" cx="50%" cy="50%" r="50%"><stop offset="0%" stop-color="#e3b831" stop-opacity="0.95"/><stop offset="62%" stop-color="#e3b831" stop-opacity="0.18"/><stop offset="100%" stop-color="#e3b831" stop-opacity="0"/></radialGradient><radialGradient id="au1" cx="50%" cy="50%" r="50%"><stop offset="0%" stop-color="#34c98a" stop-opacity="0.95"/><stop offset="62%" stop-color="#34c98a" stop-opacity="0.18"/><stop offset="100%" stop-color="#34c98a" stop-opacity="0"/></radialGradient><radialGradient id="au2" cx="50%" cy="50%" r="50%"><stop offset="0%" stop-color="#3f9fd1" stop-opacity="0.95"/><stop offset="62%" stop-color="#3f9fd1" stop-opacity="0.18"/><stop offset="100%" stop-color="#3f9fd1" stop-opacity="0"/></radialGradient><radialGradient id="au3" cx="50%" cy="50%" r="50%"><stop offset="0%" stop-color="#e3b831" stop-opacity="0.95"/><stop offset="62%" stop-color="#e3b831" stop-opacity="0.18"/><stop offset="100%" stop-color="#e3b831" stop-opacity="0"/></radialGradient><radialGradient id="au4" cx="50%" cy="50%" r="50%"><stop offset="0%" stop-color="#e3b831" stop-opacity="0.95"/><stop offset="62%" stop-color="#e3b831" stop-opacity="0.18"/><stop offset="100%" stop-color="#e3b831" stop-opacity="0"/></radialGradient><radialGradient id="aufade" cx="50%" cy="38%" r="78%"><stop offset="55%" stop-color="#fff" stop-opacity="1"/><stop offset="100%" stop-color="#fff" stop-opacity="0"/></radialGradient></defs><g opacity="0.62" filter="url(#aublur)" mask="url(#aumask)"><ellipse cx="-79.2" cy="-39.6" rx="728.6" ry="376.2" fill="url(#au0)"/><ellipse cx="538.6" cy="-19.8" rx="665.3" ry="356.4" fill="url(#au1)"/><ellipse cx="1552.3" cy="-31.7" rx="728.6" ry="376.2" fill="url(#au2)"/><ellipse cx="982.1" cy="376.2" rx="633.6" ry="336.6" fill="url(#au3)"/><ellipse cx="190.1" cy="403.9" rx="665.3" ry="336.6" fill="url(#au4)"/></g>
  <g transform="translate(95.0 115.0) scale(0.1621)" fill="#fafafa"><g transform="scale(42.666667 42.666667)"><rect x="3" y="3" width="18" height="18" fill="#e3b831"/><rect x="6" y="6" width="12" height="12" fill="none" stroke="#0a0a0a" stroke-width="1.5"/><rect x="9.25" y="8.5" width="1.75" height="7" fill="#0a0a0a"/><rect x="9.25" y="8.5" width="4.5" height="1.5" fill="#0a0a0a"/><rect x="12.25" y="8.5" width="1.5" height="3.5" fill="#0a0a0a"/><rect x="9.25" y="10.5" width="4.5" height="1.5" fill="#0a0a0a"/></g></g>
  <g fill="#fafafa"><path transform="translate(316.48 184.93) scale(0.02900 -0.02900)" d="M592 -24Q436 -24 317.50 46Q199 116 133.50 241.50Q68 367 68 533Q68 699 133.50 825Q199 951 317.50 1021.50Q436 1092 592 1092Q750 1092 867.50 1021.50Q985 951 1050.50 825Q1116 699 1116 533Q1116 367 1050.50 241.50Q985 116 867.50 46Q750 -24 592 -24ZM592 187Q676 187 735.50 230Q795 273 827 351Q859 429 859 533Q859 638 827 716Q795 794 735.50 837.50Q676 881 592 881Q510 881 450 837.50Q390 794 358 716Q326 638 326 533Q326 428 358 350.50Q390 273 449.50 230Q509 187 592 187Z"/>
<path transform="translate(350.85 184.93) scale(0.02900 -0.02900)" d="M589 -24Q433 -24 315.50 46.50Q198 117 133 242.50Q68 368 68 533Q68 698 133 824Q198 950 315.50 1021Q433 1092 589 1092Q687 1092 770 1063.50Q853 1035 916.50 983Q980 931 1019 859.50Q1058 788 1069 701L822 690Q815 733 796 768Q777 803 747.50 828Q718 853 679 867Q640 881 592 881Q507 881 447.50 837.50Q388 794 357 716Q326 638 326 533Q326 429 357 351Q388 273 447.50 230Q507 187 592 187Q641 187 679.50 200.50Q718 214 746.50 239.50Q775 265 793.50 301Q812 337 821 381L1069 370Q1060 283 1021 211.50Q982 140 918.50 87Q855 34 771 5Q687 -24 589 -24Z"/>
<path transform="translate(383.71 184.93) scale(0.02900 -0.02900)" d="M261 551Q196 551 150.50 596.50Q105 642 105 707Q105 773 150.50 818Q196 863 261 863Q326 863 371.50 818Q417 773 417 707Q417 642 371.50 596.50Q326 551 261 551Z"/>
<path transform="translate(398.82 184.93) scale(0.02900 -0.02900)" d="M117 -418V1070H368V914H374Q404 967 450 1006.50Q496 1046 557.50 1068Q619 1090 694 1090Q828 1090 931 1021Q1034 952 1092 827.50Q1150 703 1150 535Q1150 367 1092.50 242Q1035 117 932 48Q829 -21 692 -21Q618 -21 557.50 2Q497 25 452 66Q407 107 376 163H372V-418ZM630 190Q711 190 769.50 231.50Q828 273 860.50 350Q893 427 893 535Q893 644 860.50 720.50Q828 797 769.50 838Q711 879 630 879Q547 879 486.50 836.50Q426 794 393 717Q360 640 360 535Q360 431 393 353.50Q426 276 487 233Q548 190 630 190Z"/>
<path transform="translate(434.18 184.93) scale(0.02900 -0.02900)" d="M372 1490V0H117V1490Z"/>
<path transform="translate(448.36 184.93) scale(0.02900 -0.02900)" d="M590 -24Q430 -24 312.50 47Q195 118 131.50 243.50Q68 369 68 532Q68 696 133 822Q198 948 313 1020Q428 1092 578 1092Q690 1092 782.50 1053.50Q875 1015 943 942.50Q1011 870 1048.50 768Q1086 666 1086 539V468H174V642H958L844 594Q844 685 812.50 751.50Q781 818 722 854.50Q663 891 581 891Q500 891 441 854Q382 817 350 751.50Q318 686 318 598V486Q318 392 351 322Q384 252 446 214Q508 176 595 176Q657 176 705.50 194.50Q754 213 787 247Q820 281 835 326L1072 315Q1050 215 983 138.50Q916 62 815 19Q714 -24 590 -24Z"/>
<path transform="translate(481.72 184.93) scale(0.02900 -0.02900)" d="M527 -21Q390 -21 287 48Q184 117 126 242Q68 367 68 535Q68 703 126.50 827.50Q185 952 288.50 1021Q392 1090 525 1090Q601 1090 661.50 1068Q722 1046 767.50 1006Q813 966 843 912H847V1490H1102V0H851V165H846Q816 108 770 66.50Q724 25 663 2Q602 -21 527 -21ZM589 190Q672 190 732.50 233Q793 276 826 353.50Q859 431 859 535Q859 640 826 717Q793 794 732.50 836.50Q672 879 589 879Q509 879 450 838Q391 797 358.50 720.50Q326 644 326 535Q326 427 358.50 350Q391 273 450 231.50Q509 190 589 190Z"/>
<path transform="translate(517.07 184.93) scale(0.02900 -0.02900)" d="M597 -434Q459 -434 358 -395Q257 -356 196.50 -284.50Q136 -213 118 -117L360 -99Q373 -141 405 -172.50Q437 -204 485 -221.50Q533 -239 597 -239Q716 -239 783 -176.50Q850 -114 850 6V179H845Q814 122 768.50 81.50Q723 41 662.50 19.50Q602 -2 526 -2Q391 -2 287.50 65Q184 132 126 254Q68 376 68 539Q68 705 126.50 829Q185 953 288.50 1021.50Q392 1090 526 1090Q601 1090 662 1067.50Q723 1045 769.50 1004Q816 963 847 907H851V1070H1102V21Q1102 -140 1036.50 -240Q971 -340 856.50 -387Q742 -434 597 -434ZM589 206Q672 206 732.50 247Q793 288 826 364Q859 440 859 542Q859 645 826.50 721Q794 797 733 839Q672 881 589 881Q509 881 450 840.50Q391 800 358.50 724.50Q326 649 326 542Q326 436 358.50 360.50Q391 285 450 245.50Q509 206 589 206Z"/>
<path transform="translate(552.46 184.93) scale(0.02900 -0.02900)" d="M590 -24Q430 -24 312.50 47Q195 118 131.50 243.50Q68 369 68 532Q68 696 133 822Q198 948 313 1020Q428 1092 578 1092Q690 1092 782.50 1053.50Q875 1015 943 942.50Q1011 870 1048.50 768Q1086 666 1086 539V468H174V642H958L844 594Q844 685 812.50 751.50Q781 818 722 854.50Q663 891 581 891Q500 891 441 854Q382 817 350 751.50Q318 686 318 598V486Q318 392 351 322Q384 252 446 214Q508 176 595 176Q657 176 705.50 194.50Q754 213 787 247Q820 281 835 326L1072 315Q1050 215 983 138.50Q916 62 815 19Q714 -24 590 -24Z"/></g>
  <g fill="#a3a3a3"><path transform="translate(316.48 231.66) scale(0.01276 -0.01276)" d="M639 -21Q562 -21 499.50 2.50Q437 26 389 67.50Q341 109 307 163H301V0H133V1490H305V909H310Q341 961 388 1001.50Q435 1042 498.50 1065Q562 1088 639 1088Q777 1088 881 1019Q985 950 1042.50 825Q1100 700 1100 534Q1100 369 1042.50 244Q985 119 881 49Q777 -21 639 -21ZM613 134Q708 134 778 181.50Q848 229 887 318.50Q926 408 926 535Q926 662 887 751Q848 840 778 887Q708 934 613 934Q514 934 442 884.50Q370 835 332 745.50Q294 656 294 535Q294 415 332.50 324.50Q371 234 442.50 184Q514 134 613 134Z"/>
<path transform="translate(331.53 231.66) scale(0.01276 -0.01276)" d="M573 -24Q426 -24 314.50 47Q203 118 141 243Q79 368 79 532Q79 697 141 823Q203 949 314.50 1020.50Q426 1092 573 1092Q722 1092 833 1020.50Q944 949 1006 823Q1068 697 1068 532Q1068 368 1006 243Q944 118 833 47Q722 -24 573 -24ZM573 132Q676 132 747.50 183Q819 234 856.50 324.50Q894 415 894 532Q894 651 856.50 741.50Q819 832 747.50 884Q676 936 573 936Q471 936 399.50 884.50Q328 833 291 742Q254 651 254 532Q254 414 291 324Q328 234 399.50 183Q471 132 573 132Z"/>
<path transform="translate(346.16 231.66) scale(0.01276 -0.01276)" d="M305 630V0H133V1070H301V810H258Q310 956 403 1022Q496 1088 621 1088Q729 1088 816.50 1041.50Q904 995 955.50 902Q1007 809 1007 668V0H835V655Q835 791 769 861Q703 931 584 931Q507 931 443.50 899Q380 867 342.50 800.50Q305 734 305 630Z"/>
<path transform="translate(360.71 231.66) scale(0.01276 -0.01276)" d="M540 -21Q403 -21 298.50 49Q194 119 136.50 244Q79 369 79 534Q79 700 137 825Q195 950 299 1019Q403 1088 541 1088Q619 1088 681.50 1065Q744 1042 791.50 1001.50Q839 961 869 909H874V1490H1046V0H878V163H872Q839 109 790.50 67.50Q742 26 680 2.50Q618 -21 540 -21ZM567 134Q666 134 737.50 184Q809 234 847 324.50Q885 415 885 535Q885 656 847 745.50Q809 835 737.50 884.50Q666 934 567 934Q472 934 401.50 887Q331 840 292.50 751Q254 662 254 535Q254 408 293 318.50Q332 229 402.50 181.50Q473 134 567 134Z"/>
<path transform="translate(375.76 231.66) scale(0.01276 -0.01276)" d="M577 -24Q420 -24 309 47Q198 118 138.50 243.50Q79 369 79 531Q79 695 140.50 821Q202 947 311 1019.50Q420 1092 563 1092Q668 1092 756 1054Q844 1016 908.50 944Q973 872 1008.50 769.50Q1044 667 1044 536V483H176V631H949L873 578Q873 687 835.50 768Q798 849 728.50 893.50Q659 938 563 938Q467 938 397 893Q327 848 288.50 768.50Q250 689 250 585V506Q250 394 289 309.50Q328 225 401 178Q474 131 577 131Q650 131 706.50 153.50Q763 176 800.50 217.50Q838 259 855 314L1026 304Q1005 206 942 132.50Q879 59 785.50 17.50Q692 -24 577 -24Z"/>
<path transform="translate(390.04 231.66) scale(0.01276 -0.01276)" d="M540 -21Q403 -21 298.50 49Q194 119 136.50 244Q79 369 79 534Q79 700 137 825Q195 950 299 1019Q403 1088 541 1088Q619 1088 681.50 1065Q744 1042 791.50 1001.50Q839 961 869 909H874V1490H1046V0H878V163H872Q839 109 790.50 67.50Q742 26 680 2.50Q618 -21 540 -21ZM567 134Q666 134 737.50 184Q809 234 847 324.50Q885 415 885 535Q885 656 847 745.50Q809 835 737.50 884.50Q666 934 567 934Q472 934 401.50 887Q331 840 292.50 751Q254 662 254 535Q254 408 293 318.50Q332 229 402.50 181.50Q473 134 567 134Z"/>
<path transform="translate(411.80 231.66) scale(0.01276 -0.01276)" d="M573 -24Q426 -24 314.50 47Q203 118 141 243Q79 368 79 532Q79 697 141 823Q203 949 314.50 1020.50Q426 1092 573 1092Q661 1092 736.50 1065.50Q812 1039 871 992Q930 945 968 880Q1006 815 1020 737L848 726Q838 772 815.50 810.50Q793 849 758 877Q723 905 677 920.50Q631 936 573 936Q471 936 399.50 884.50Q328 833 291 742Q254 651 254 532Q254 414 291 324Q328 234 399.50 183Q471 132 573 132Q632 132 677.50 147Q723 162 756 190Q789 218 812 257Q835 296 847 344L1021 333Q1008 256 969.50 190.50Q931 125 871.50 77Q812 29 736.50 2.50Q661 -24 573 -24Z"/>
<path transform="translate(425.75 231.66) scale(0.01276 -0.01276)" d="M573 -24Q426 -24 314.50 47Q203 118 141 243Q79 368 79 532Q79 697 141 823Q203 949 314.50 1020.50Q426 1092 573 1092Q722 1092 833 1020.50Q944 949 1006 823Q1068 697 1068 532Q1068 368 1006 243Q944 118 833 47Q722 -24 573 -24ZM573 132Q676 132 747.50 183Q819 234 856.50 324.50Q894 415 894 532Q894 651 856.50 741.50Q819 832 747.50 884Q676 936 573 936Q471 936 399.50 884.50Q328 833 291 742Q254 651 254 532Q254 414 291 324Q328 234 399.50 183Q471 132 573 132Z"/>
<path transform="translate(440.38 231.66) scale(0.01276 -0.01276)" d="M133 0V1070H301V846H282Q311 926 361.50 980Q412 1034 477 1062Q542 1090 614 1090Q738 1090 822 1018.50Q906 947 927 846H895Q917 915 967 970Q1017 1025 1089.50 1057.50Q1162 1090 1250 1090Q1347 1090 1427 1048Q1507 1006 1554.50 921Q1602 836 1602 706V0H1430V705Q1430 827 1361 879.50Q1292 932 1201 932Q1125 932 1069.50 900Q1014 868 984 812.50Q954 757 954 685V0H781V723Q781 817 718 874.50Q655 932 559 932Q493 932 435 901Q377 870 341 809Q305 748 305 657V0Z"/>
<path transform="translate(462.53 231.66) scale(0.01276 -0.01276)" d="M133 0V1070H301V846H282Q311 926 361.50 980Q412 1034 477 1062Q542 1090 614 1090Q738 1090 822 1018.50Q906 947 927 846H895Q917 915 967 970Q1017 1025 1089.50 1057.50Q1162 1090 1250 1090Q1347 1090 1427 1048Q1507 1006 1554.50 921Q1602 836 1602 706V0H1430V705Q1430 827 1361 879.50Q1292 932 1201 932Q1125 932 1069.50 900Q1014 868 984 812.50Q954 757 954 685V0H781V723Q781 817 718 874.50Q655 932 559 932Q493 932 435 901Q377 870 341 809Q305 748 305 657V0Z"/>
<path transform="translate(484.67 231.66) scale(0.01276 -0.01276)" d="M133 0V1070H305V0ZM220 1271Q171 1271 136.50 1305Q102 1339 102 1387Q102 1436 136.50 1470Q171 1504 219 1504Q269 1504 303.50 1470Q338 1436 338 1387Q338 1339 303.50 1305Q269 1271 220 1271Z"/>
<path transform="translate(490.26 231.66) scale(0.01276 -0.01276)" d="M589 1070V922H16V1070ZM200 1353H372V264Q372 199 398.50 172.50Q425 146 491 146Q513 146 539.50 147Q566 148 588 149L596 1Q570 -1 538 -2Q506 -3 478 -3Q340 -3 270 60Q200 123 200 246Z"/>
<path transform="translate(498.47 231.66) scale(0.01276 -0.01276)" d="M133 0V1070H301V846H282Q311 926 361.50 980Q412 1034 477 1062Q542 1090 614 1090Q738 1090 822 1018.50Q906 947 927 846H895Q917 915 967 970Q1017 1025 1089.50 1057.50Q1162 1090 1250 1090Q1347 1090 1427 1048Q1507 1006 1554.50 921Q1602 836 1602 706V0H1430V705Q1430 827 1361 879.50Q1292 932 1201 932Q1125 932 1069.50 900Q1014 868 984 812.50Q954 757 954 685V0H781V723Q781 817 718 874.50Q655 932 559 932Q493 932 435 901Q377 870 341 809Q305 748 305 657V0Z"/>
<path transform="translate(520.62 231.66) scale(0.01276 -0.01276)" d="M577 -24Q420 -24 309 47Q198 118 138.50 243.50Q79 369 79 531Q79 695 140.50 821Q202 947 311 1019.50Q420 1092 563 1092Q668 1092 756 1054Q844 1016 908.50 944Q973 872 1008.50 769.50Q1044 667 1044 536V483H176V631H949L873 578Q873 687 835.50 768Q798 849 728.50 893.50Q659 938 563 938Q467 938 397 893Q327 848 288.50 768.50Q250 689 250 585V506Q250 394 289 309.50Q328 225 401 178Q474 131 577 131Q650 131 706.50 153.50Q763 176 800.50 217.50Q838 259 855 314L1026 304Q1005 206 942 132.50Q879 59 785.50 17.50Q692 -24 577 -24Z"/>
<path transform="translate(534.90 231.66) scale(0.01276 -0.01276)" d="M305 630V0H133V1070H301V810H258Q310 956 403 1022Q496 1088 621 1088Q729 1088 816.50 1041.50Q904 995 955.50 902Q1007 809 1007 668V0H835V655Q835 791 769 861Q703 931 584 931Q507 931 443.50 899Q380 867 342.50 800.50Q305 734 305 630Z"/>
<path transform="translate(549.45 231.66) scale(0.01276 -0.01276)" d="M589 1070V922H16V1070ZM200 1353H372V264Q372 199 398.50 172.50Q425 146 491 146Q513 146 539.50 147Q566 148 588 149L596 1Q570 -1 538 -2Q506 -3 478 -3Q340 -3 270 60Q200 123 200 246Z"/>
<path transform="translate(557.66 231.66) scale(0.01276 -0.01276)" d="M504 -24Q390 -24 298.50 12Q207 48 150 121.50Q93 195 83 306L252 315Q264 222 328 173.50Q392 125 500 125Q612 125 676.50 171.50Q741 218 741 288Q741 348 698 384.50Q655 421 581 438L408 478Q260 514 184.50 589Q109 664 109 780Q109 871 159 941.50Q209 1012 297 1052Q385 1092 499 1092Q610 1092 696 1052Q782 1012 833.50 939.50Q885 867 893 767L727 758Q721 837 662 890.50Q603 944 499 944Q402 944 342 897Q282 850 282 782Q282 722 326 685Q370 648 451 629L621 589Q773 553 844.50 480.50Q916 408 916 294Q916 196 862.50 124.50Q809 53 715.50 14.50Q622 -24 504 -24Z"/>
<path transform="translate(577.09 231.66) scale(0.01276 -0.01276)" d="M369 0 39 1070H220L353 600Q384 495 413 380Q442 265 472 145H446Q475 263 504.50 378.50Q534 494 565 600L699 1070H872L1004 600Q1035 494 1063.50 379Q1092 264 1122 145H1094Q1124 263 1154 378.50Q1184 494 1214 600L1350 1070H1531L1201 0H1023L882 486Q862 559 842 634.50Q822 710 803 786.50Q784 863 764 938H807Q787 863 767.50 786.50Q748 710 728 634Q708 558 687 486L544 0Z"/>
<path transform="translate(597.12 231.66) scale(0.01276 -0.01276)" d="M133 0V1070H305V0ZM220 1271Q171 1271 136.50 1305Q102 1339 102 1387Q102 1436 136.50 1470Q171 1504 219 1504Q269 1504 303.50 1470Q338 1436 338 1387Q338 1339 303.50 1305Q269 1271 220 1271Z"/>
<path transform="translate(602.71 231.66) scale(0.01276 -0.01276)" d="M589 1070V922H16V1070ZM200 1353H372V264Q372 199 398.50 172.50Q425 146 491 146Q513 146 539.50 147Q566 148 588 149L596 1Q570 -1 538 -2Q506 -3 478 -3Q340 -3 270 60Q200 123 200 246Z"/>
<path transform="translate(610.93 231.66) scale(0.01276 -0.01276)" d="M305 630V0H133V1490H305V810H258Q310 956 403 1022Q496 1088 621 1088Q729 1088 816.50 1041.50Q904 995 955.50 902Q1007 809 1007 668V0H835V655Q835 791 769 861Q703 931 584 931Q507 931 443.50 899Q380 867 342.50 800.50Q305 734 305 630Z"/>
<path transform="translate(632.19 231.66) scale(0.01276 -0.01276)" d="M133 -418V1070H301V909H307Q338 961 386 1001.50Q434 1042 498 1065Q562 1088 639 1088Q777 1088 881 1019Q985 950 1042.50 825Q1100 700 1100 534Q1100 369 1042.50 244Q985 119 881 49Q777 -21 639 -21Q562 -21 500.50 2.50Q439 26 391.50 67.50Q344 109 310 163H305V-418ZM613 134Q708 134 778 181.50Q848 229 887 318.50Q926 408 926 535Q926 662 887 751Q848 840 778 887Q708 934 613 934Q514 934 442 884.50Q370 835 332 745.50Q294 656 294 535Q294 415 332.50 324.50Q371 234 442.50 184Q514 134 613 134Z"/>
<path transform="translate(647.24 231.66) scale(0.01276 -0.01276)" d="M133 0V1070H298V902H304Q333 985 399.50 1035.50Q466 1086 566 1086Q588 1086 609 1084Q630 1082 642 1080V908Q632 911 603 915.50Q574 920 537 920Q474 920 421 891.50Q368 863 336.50 805.50Q305 748 305 661V0Z"/>
<path transform="translate(655.98 231.66) scale(0.01276 -0.01276)" d="M573 -24Q426 -24 314.50 47Q203 118 141 243Q79 368 79 532Q79 697 141 823Q203 949 314.50 1020.50Q426 1092 573 1092Q722 1092 833 1020.50Q944 949 1006 823Q1068 697 1068 532Q1068 368 1006 243Q944 118 833 47Q722 -24 573 -24ZM573 132Q676 132 747.50 183Q819 234 856.50 324.50Q894 415 894 532Q894 651 856.50 741.50Q819 832 747.50 884Q676 936 573 936Q471 936 399.50 884.50Q328 833 291 742Q254 651 254 532Q254 414 291 324Q328 234 399.50 183Q471 132 573 132Z"/>
<path transform="translate(670.62 231.66) scale(0.01276 -0.01276)" d="M448 0 35 1070H222L452 450Q483 368 509.50 286Q536 204 562 123H515Q542 204 567.50 286Q593 368 623 450L851 1070H1036L623 0Z"/>
<path transform="translate(684.29 231.66) scale(0.01276 -0.01276)" d="M453 -18Q348 -18 264 19Q180 56 131 128.50Q82 201 82 307Q82 399 118 457Q154 515 214.50 547.50Q275 580 351 597Q427 614 506 624Q606 638 665.50 645Q725 652 750.50 668.50Q776 685 776 725V734Q776 795 749 840Q722 885 669.50 911Q617 937 542 937Q468 937 411 912Q354 887 320.50 846Q287 805 279 756L106 768Q120 866 179 937.50Q238 1009 331.50 1048.50Q425 1088 541 1088Q625 1088 699 1066Q773 1044 828.50 999Q884 954 915.50 887Q947 820 947 730V0H777V150H771Q752 112 714 73Q676 34 612.50 8Q549 -18 453 -18ZM479 135Q582 135 648 173Q714 211 745 271.50Q776 332 776 401V538Q766 528 737 519.50Q708 511 667.50 503.50Q627 496 582.50 489Q538 482 498 477Q436 469 381 449.50Q326 430 292 394Q258 358 258 297Q258 246 285 210Q312 174 362 154.50Q412 135 479 135Z"/>
<path transform="translate(698.07 231.66) scale(0.01276 -0.01276)" d="M639 -21Q562 -21 499.50 2.50Q437 26 389 67.50Q341 109 307 163H301V0H133V1490H305V909H310Q341 961 388 1001.50Q435 1042 498.50 1065Q562 1088 639 1088Q777 1088 881 1019Q985 950 1042.50 825Q1100 700 1100 534Q1100 369 1042.50 244Q985 119 881 49Q777 -21 639 -21ZM613 134Q708 134 778 181.50Q848 229 887 318.50Q926 408 926 535Q926 662 887 751Q848 840 778 887Q708 934 613 934Q514 934 442 884.50Q370 835 332 745.50Q294 656 294 535Q294 415 332.50 324.50Q371 234 442.50 184Q514 134 613 134Z"/>
<path transform="translate(713.11 231.66) scale(0.01276 -0.01276)" d="M305 1490V0H133V1490Z"/>
<path transform="translate(718.70 231.66) scale(0.01276 -0.01276)" d="M577 -24Q420 -24 309 47Q198 118 138.50 243.50Q79 369 79 531Q79 695 140.50 821Q202 947 311 1019.50Q420 1092 563 1092Q668 1092 756 1054Q844 1016 908.50 944Q973 872 1008.50 769.50Q1044 667 1044 536V483H176V631H949L873 578Q873 687 835.50 768Q798 849 728.50 893.50Q659 938 563 938Q467 938 397 893Q327 848 288.50 768.50Q250 689 250 585V506Q250 394 289 309.50Q328 225 401 178Q474 131 577 131Q650 131 706.50 153.50Q763 176 800.50 217.50Q838 259 855 314L1026 304Q1005 206 942 132.50Q879 59 785.50 17.50Q692 -24 577 -24Z"/>
<path transform="translate(739.70 231.66) scale(0.01276 -0.01276)" d="M573 -24Q426 -24 314.50 47Q203 118 141 243Q79 368 79 532Q79 697 141 823Q203 949 314.50 1020.50Q426 1092 573 1092Q661 1092 736.50 1065.50Q812 1039 871 992Q930 945 968 880Q1006 815 1020 737L848 726Q838 772 815.50 810.50Q793 849 758 877Q723 905 677 920.50Q631 936 573 936Q471 936 399.50 884.50Q328 833 291 742Q254 651 254 532Q254 414 291 324Q328 234 399.50 183Q471 132 573 132Q632 132 677.50 147Q723 162 756 190Q789 218 812 257Q835 296 847 344L1021 333Q1008 256 969.50 190.50Q931 125 871.50 77Q812 29 736.50 2.50Q661 -24 573 -24Z"/>
<path transform="translate(753.65 231.66) scale(0.01276 -0.01276)" d="M573 -24Q426 -24 314.50 47Q203 118 141 243Q79 368 79 532Q79 697 141 823Q203 949 314.50 1020.50Q426 1092 573 1092Q722 1092 833 1020.50Q944 949 1006 823Q1068 697 1068 532Q1068 368 1006 243Q944 118 833 47Q722 -24 573 -24ZM573 132Q676 132 747.50 183Q819 234 856.50 324.50Q894 415 894 532Q894 651 856.50 741.50Q819 832 747.50 884Q676 936 573 936Q471 936 399.50 884.50Q328 833 291 742Q254 651 254 532Q254 414 291 324Q328 234 399.50 183Q471 132 573 132Z"/>
<path transform="translate(768.28 231.66) scale(0.01276 -0.01276)" d="M305 630V0H133V1070H301V810H258Q310 956 403 1022Q496 1088 621 1088Q729 1088 816.50 1041.50Q904 995 955.50 902Q1007 809 1007 668V0H835V655Q835 791 769 861Q703 931 584 931Q507 931 443.50 899Q380 867 342.50 800.50Q305 734 305 630Z"/>
<path transform="translate(782.83 231.66) scale(0.01276 -0.01276)" d="M504 -24Q390 -24 298.50 12Q207 48 150 121.50Q93 195 83 306L252 315Q264 222 328 173.50Q392 125 500 125Q612 125 676.50 171.50Q741 218 741 288Q741 348 698 384.50Q655 421 581 438L408 478Q260 514 184.50 589Q109 664 109 780Q109 871 159 941.50Q209 1012 297 1052Q385 1092 499 1092Q610 1092 696 1052Q782 1012 833.50 939.50Q885 867 893 767L727 758Q721 837 662 890.50Q603 944 499 944Q402 944 342 897Q282 850 282 782Q282 722 326 685Q370 648 451 629L621 589Q773 553 844.50 480.50Q916 408 916 294Q916 196 862.50 124.50Q809 53 715.50 14.50Q622 -24 504 -24Z"/>
<path transform="translate(795.54 231.66) scale(0.01276 -0.01276)" d="M577 -24Q420 -24 309 47Q198 118 138.50 243.50Q79 369 79 531Q79 695 140.50 821Q202 947 311 1019.50Q420 1092 563 1092Q668 1092 756 1054Q844 1016 908.50 944Q973 872 1008.50 769.50Q1044 667 1044 536V483H176V631H949L873 578Q873 687 835.50 768Q798 849 728.50 893.50Q659 938 563 938Q467 938 397 893Q327 848 288.50 768.50Q250 689 250 585V506Q250 394 289 309.50Q328 225 401 178Q474 131 577 131Q650 131 706.50 153.50Q763 176 800.50 217.50Q838 259 855 314L1026 304Q1005 206 942 132.50Q879 59 785.50 17.50Q692 -24 577 -24Z"/>
<path transform="translate(809.82 231.66) scale(0.01276 -0.01276)" d="M1046 -418H874V163H869Q836 109 788.50 67.50Q741 26 679.50 2.50Q618 -21 540 -21Q403 -21 298.50 49Q194 119 136.50 244Q79 369 79 534Q79 700 137 825Q195 950 299 1019Q403 1088 541 1088Q619 1088 682.50 1065Q746 1042 794 1001.50Q842 961 872 909H878V1070H1046ZM567 134Q666 134 737.50 184Q809 234 847 324.50Q885 415 885 535Q885 656 847 745.50Q809 835 737.50 884.50Q666 934 567 934Q472 934 401.50 887Q331 840 292.50 751Q254 662 254 535Q254 408 293 318.50Q332 229 402.50 181.50Q473 134 567 134Z"/>
<path transform="translate(824.87 231.66) scale(0.01276 -0.01276)" d="M519 -19Q412 -19 324 27.50Q236 74 184.50 168Q133 262 133 402V1070H305V414Q305 279 371.50 209Q438 139 556 139Q634 139 697 170.50Q760 202 797.50 269.50Q835 337 835 440V1070H1007V0H839V259H882Q830 114 737 47.50Q644 -19 519 -19Z"/>
<path transform="translate(839.42 231.66) scale(0.01276 -0.01276)" d="M577 -24Q420 -24 309 47Q198 118 138.50 243.50Q79 369 79 531Q79 695 140.50 821Q202 947 311 1019.50Q420 1092 563 1092Q668 1092 756 1054Q844 1016 908.50 944Q973 872 1008.50 769.50Q1044 667 1044 536V483H176V631H949L873 578Q873 687 835.50 768Q798 849 728.50 893.50Q659 938 563 938Q467 938 397 893Q327 848 288.50 768.50Q250 689 250 585V506Q250 394 289 309.50Q328 225 401 178Q474 131 577 131Q650 131 706.50 153.50Q763 176 800.50 217.50Q838 259 855 314L1026 304Q1005 206 942 132.50Q879 59 785.50 17.50Q692 -24 577 -24Z"/>
<path transform="translate(853.70 231.66) scale(0.01276 -0.01276)" d="M305 630V0H133V1070H301V810H258Q310 956 403 1022Q496 1088 621 1088Q729 1088 816.50 1041.50Q904 995 955.50 902Q1007 809 1007 668V0H835V655Q835 791 769 861Q703 931 584 931Q507 931 443.50 899Q380 867 342.50 800.50Q305 734 305 630Z"/>
<path transform="translate(868.25 231.66) scale(0.01276 -0.01276)" d="M573 -24Q426 -24 314.50 47Q203 118 141 243Q79 368 79 532Q79 697 141 823Q203 949 314.50 1020.50Q426 1092 573 1092Q661 1092 736.50 1065.50Q812 1039 871 992Q930 945 968 880Q1006 815 1020 737L848 726Q838 772 815.50 810.50Q793 849 758 877Q723 905 677 920.50Q631 936 573 936Q471 936 399.50 884.50Q328 833 291 742Q254 651 254 532Q254 414 291 324Q328 234 399.50 183Q471 132 573 132Q632 132 677.50 147Q723 162 756 190Q789 218 812 257Q835 296 847 344L1021 333Q1008 256 969.50 190.50Q931 125 871.50 77Q812 29 736.50 2.50Q661 -24 573 -24Z"/>
<path transform="translate(882.19 231.66) scale(0.01276 -0.01276)" d="M577 -24Q420 -24 309 47Q198 118 138.50 243.50Q79 369 79 531Q79 695 140.50 821Q202 947 311 1019.50Q420 1092 563 1092Q668 1092 756 1054Q844 1016 908.50 944Q973 872 1008.50 769.50Q1044 667 1044 536V483H176V631H949L873 578Q873 687 835.50 768Q798 849 728.50 893.50Q659 938 563 938Q467 938 397 893Q327 848 288.50 768.50Q250 689 250 585V506Q250 394 289 309.50Q328 225 401 178Q474 131 577 131Q650 131 706.50 153.50Q763 176 800.50 217.50Q838 259 855 314L1026 304Q1005 206 942 132.50Q879 59 785.50 17.50Q692 -24 577 -24Z"/>
<path transform="translate(896.47 231.66) scale(0.01276 -0.01276)" d="M504 -24Q390 -24 298.50 12Q207 48 150 121.50Q93 195 83 306L252 315Q264 222 328 173.50Q392 125 500 125Q612 125 676.50 171.50Q741 218 741 288Q741 348 698 384.50Q655 421 581 438L408 478Q260 514 184.50 589Q109 664 109 780Q109 871 159 941.50Q209 1012 297 1052Q385 1092 499 1092Q610 1092 696 1052Q782 1012 833.50 939.50Q885 867 893 767L727 758Q721 837 662 890.50Q603 944 499 944Q402 944 342 897Q282 850 282 782Q282 722 326 685Q370 648 451 629L621 589Q773 553 844.50 480.50Q916 408 916 294Q916 196 862.50 124.50Q809 53 715.50 14.50Q622 -24 504 -24Z"/></g>
  <g fill="#e3b831"><path transform="translate(316.48 270.47) scale(0.02138 -0.02138)" d="M88 -180V550H186V444H187Q195 498 235 529Q275 560 337 560Q419 560 468 504.50Q517 449 517 354V197Q517 101 468 45.50Q419 -10 337 -10Q276 -10 236 21Q196 52 187 106H185L187 -21V-180ZM302 76Q357 76 387.50 104.50Q418 133 418 197V353Q418 417 387.50 445.50Q357 474 302 474Q249 474 218 441Q187 408 187 348V202Q187 142 218 109Q249 76 302 76Z"/>
<path transform="translate(329.31 270.47) scale(0.02138 -0.02138)" d="M382 0Q307 0 262 44Q217 88 217 161V640H29V730H316V162Q316 129 334.50 109.50Q353 90 385 90H552V0Z"/>
<path transform="translate(342.14 270.47) scale(0.02138 -0.02138)" d="M300 -10Q201 -10 140.50 49Q80 108 80 210V340Q80 442 140.50 501Q201 560 300 560Q366 560 415.50 533.50Q465 507 492.50 459.50Q520 412 520 349V250H177V202Q177 142 210 108Q243 74 300 74Q348 74 379 92Q410 110 416 142H515Q505 72 446 31Q387 -10 300 -10ZM177 349V323H423V349Q423 412 391 446Q359 480 300 480Q241 480 209 446Q177 412 177 349Z"/>
<path transform="translate(354.97 270.47) scale(0.02138 -0.02138)" d="M264 -10Q181 -10 132 45.50Q83 101 83 196V354Q83 449 132 504.50Q181 560 264 560Q325 560 365.50 529Q406 498 415 444L413 572V730H512V0H414V107Q405 52 365 21Q325 -10 264 -10ZM298 76Q351 76 382 109Q413 142 413 202V348Q413 408 382 441Q351 474 298 474Q243 474 212.50 445.50Q182 417 182 353V197Q182 133 212.50 104.50Q243 76 298 76Z"/>
<path transform="translate(367.80 270.47) scale(0.02138 -0.02138)" d="M159 -180V-92H314Q359 -92 386 -66.50Q413 -41 413 3V49L415 144H414Q404 93 365.50 65Q327 37 267 37Q182 37 133 91.50Q84 146 84 241V354Q84 449 133 504.50Q182 560 267 560Q325 560 363.50 532Q402 504 413 455H414V550H511V2Q511 -82 458 -131Q405 -180 314 -180ZM298 120Q351 120 382 153Q413 186 413 246V349Q413 408 382 441Q351 474 298 474Q243 474 213 442.50Q183 411 183 357V237Q183 183 213 151.50Q243 120 298 120Z"/>
<path transform="translate(380.63 270.47) scale(0.02138 -0.02138)" d="M300 -10Q201 -10 140.50 49Q80 108 80 210V340Q80 442 140.50 501Q201 560 300 560Q366 560 415.50 533.50Q465 507 492.50 459.50Q520 412 520 349V250H177V202Q177 142 210 108Q243 74 300 74Q348 74 379 92Q410 110 416 142H515Q505 72 446 31Q387 -10 300 -10ZM177 349V323H423V349Q423 412 391 446Q359 480 300 480Q241 480 209 446Q177 412 177 349Z"/>
<path transform="translate(393.46 270.47) scale(0.02138 -0.02138)" d="M300 -10Q262 -10 238.50 13Q215 36 215 72Q215 110 238.50 134Q262 158 300 158Q338 158 361.50 134Q385 110 385 72Q385 36 361.50 13Q338 -10 300 -10Z"/>
<path transform="translate(406.29 270.47) scale(0.02138 -0.02138)" d="M300 -8Q199 -8 139.50 50Q80 108 80 212V338Q80 442 139.50 500Q199 558 300 558Q401 558 460.50 500Q520 442 520 338V212Q520 108 460.50 50Q401 -8 300 -8ZM300 79Q356 79 388.50 110.50Q421 142 421 203V347Q421 408 388.50 439.50Q356 471 300 471Q244 471 211.50 439.50Q179 408 179 347V203Q179 142 211.50 110.50Q244 79 300 79Z"/>
<path transform="translate(419.12 270.47) scale(0.02138 -0.02138)" d="M308 -10Q207 -10 146 46.50Q85 103 85 202V349Q85 447 146 503.50Q207 560 308 560Q405 560 464.50 508.50Q524 457 527 368H429Q426 418 393.50 445.50Q361 473 308 473Q251 473 217.50 440.50Q184 408 184 349V202Q184 142 217.50 110Q251 78 308 78Q362 78 394 105Q426 132 429 182H527Q524 93 464.50 41.50Q405 -10 308 -10Z"/>
<path transform="translate(431.95 270.47) scale(0.02138 -0.02138)" d="M88 0V730H187V550L186 445H187Q194 499 232.50 529.50Q271 560 334 560Q416 560 465 508Q514 456 514 368V0H415V353Q415 412 385 444Q355 476 303 476Q249 476 218 442.50Q187 409 187 349V0Z"/>
<path transform="translate(444.78 270.47) scale(0.02138 -0.02138)" d="M93 0V730H192V326H293L441 550H553L380 287L562 0H448L294 241H192V0Z"/>
<path transform="translate(457.61 270.47) scale(0.02138 -0.02138)" d="M300 -10Q262 -10 238.50 13Q215 36 215 72Q215 110 238.50 134Q262 158 300 158Q338 158 361.50 134Q385 110 385 72Q385 36 361.50 13Q338 -10 300 -10Z"/>
<path transform="translate(470.44 270.47) scale(0.02138 -0.02138)" d="M83 0V90H276V460H103V550H375V90H556V0ZM316 647Q282 647 262 664.50Q242 682 242 712Q242 743 262 761Q282 779 316 779Q350 779 370 761Q390 743 390 712Q390 682 370 664.50Q350 647 316 647Z"/>
<path transform="translate(483.28 270.47) scale(0.02138 -0.02138)" d="M300 -8Q199 -8 139.50 50Q80 108 80 212V338Q80 442 139.50 500Q199 558 300 558Q401 558 460.50 500Q520 442 520 338V212Q520 108 460.50 50Q401 -8 300 -8ZM300 79Q356 79 388.50 110.50Q421 142 421 203V347Q421 408 388.50 439.50Q356 471 300 471Q244 471 211.50 439.50Q179 408 179 347V203Q179 142 211.50 110.50Q244 79 300 79Z"/></g>
</svg>
