<svg viewBox="0 0 1024 1024" xmlns="http://www.w3.org/2000/svg" role="img" aria-label="orangecheck aurora mark">
  <rect width="1024" height="1024" fill="#0a0a0a"/>
  <g transform="translate(204 204)">
    <defs><radialGradient id="xorangecheck aurora markf0" cx="50%" cy="50%" r="50%"><stop offset="0%" stop-color="#f97316" stop-opacity="0.96"/><stop offset="52%" stop-color="#f97316" stop-opacity="0.30"/><stop offset="100%" stop-color="#f97316" stop-opacity="0"/></radialGradient><radialGradient id="xorangecheck aurora markf1" cx="50%" cy="50%" r="50%"><stop offset="0%" stop-color="#f97316" stop-opacity="0.96"/><stop offset="52%" stop-color="#f97316" stop-opacity="0.30"/><stop offset="100%" stop-color="#f97316" stop-opacity="0"/></radialGradient><radialGradient id="xorangecheck aurora markf2" cx="50%" cy="50%" r="50%"><stop offset="0%" stop-color="#f97316" stop-opacity="0.82"/><stop offset="52%" stop-color="#f97316" stop-opacity="0.26"/><stop offset="100%" stop-color="#f97316" stop-opacity="0"/></radialGradient><radialGradient id="xorangecheck aurora markf3" cx="50%" cy="50%" r="50%"><stop offset="0%" stop-color="#34c98a" stop-opacity="0.60"/><stop offset="52%" stop-color="#34c98a" stop-opacity="0.19"/><stop offset="100%" stop-color="#34c98a" stop-opacity="0"/></radialGradient><radialGradient id="xorangecheck aurora markf4" cx="50%" cy="50%" r="50%"><stop offset="0%" stop-color="#3f9fd1" stop-opacity="0.60"/><stop offset="52%" stop-color="#3f9fd1" stop-opacity="0.19"/><stop offset="100%" stop-color="#3f9fd1" stop-opacity="0"/></radialGradient><filter id="xorangecheck aurora markb" x="-30%" y="-30%" width="160%" height="160%"><feGaussianBlur stdDeviation="52.4"/></filter><clipPath id="xorangecheck aurora markc"><path d="M518 856Q463 820 438.5 785.5Q414 751 414 711Q414 657 462.5 613.0Q511 569 711 473Q766 509 790.5 543.5Q815 578 815 621Q815 702 550 840ZM930 1460V1235Q845 1265 779.0 1279.5Q713 1294 659 1294Q583 1294 540.5 1265.0Q498 1236 498 1184Q498 1109 701 1004Q720 994 729 989Q943 879 1002.0 808.5Q1061 738 1061 637Q1061 548 1013.5 484.0Q966 420 864 373Q934 323 966.5 261.5Q999 200 999 119Q999 -28 894.5 -111.5Q790 -195 604 -195Q515 -195 429.0 -180.5Q343 -166 258 -137V92Q343 62 424.0 46.5Q505 31 578 31Q655 31 696.0 59.5Q737 88 737 141Q737 211 523 326L512 332L486 346Q170 516 170 688Q170 782 222.0 851.5Q274 921 371 954Q300 1004 268.0 1064.0Q236 1124 236 1206Q236 1348 340.0 1434.0Q444 1520 616 1520Q690 1520 768.5 1505.0Q847 1490 930 1460Z" fill="#ffffff" transform="translate(135.5595 493.6082) scale(0.280163 -0.280163)"/></clipPath></defs><g clip-path="url(#xorangecheck aurora markc)"><rect width="616" height="616" fill="#141414"/><g opacity="1.0" filter="url(#xorangecheck aurora markb)"><circle cx="123.2" cy="98.6" r="406.6" fill="url(#xorangecheck aurora markf0)"/><circle cx="320.3" cy="338.8" r="357.3" fill="url(#xorangecheck aurora markf1)"/><circle cx="110.9" cy="542.1" r="345.0" fill="url(#xorangecheck aurora markf2)"/><circle cx="529.8" cy="92.4" r="308.0" fill="url(#xorangecheck aurora markf3)"/><circle cx="542.1" cy="517.4" r="320.3" fill="url(#xorangecheck aurora markf4)"/></g></g><path d="M518 856Q463 820 438.5 785.5Q414 751 414 711Q414 657 462.5 613.0Q511 569 711 473Q766 509 790.5 543.5Q815 578 815 621Q815 702 550 840ZM930 1460V1235Q845 1265 779.0 1279.5Q713 1294 659 1294Q583 1294 540.5 1265.0Q498 1236 498 1184Q498 1109 701 1004Q720 994 729 989Q943 879 1002.0 808.5Q1061 738 1061 637Q1061 548 1013.5 484.0Q966 420 864 373Q934 323 966.5 261.5Q999 200 999 119Q999 -28 894.5 -111.5Q790 -195 604 -195Q515 -195 429.0 -180.5Q343 -166 258 -137V92Q343 62 424.0 46.5Q505 31 578 31Q655 31 696.0 59.5Q737 88 737 141Q737 211 523 326L512 332L486 346Q170 516 170 688Q170 782 222.0 851.5Q274 921 371 954Q300 1004 268.0 1064.0Q236 1124 236 1206Q236 1348 340.0 1434.0Q444 1520 616 1520Q690 1520 768.5 1505.0Q847 1490 930 1460Z" fill="none" transform="translate(135.5595 493.6082) scale(0.280163 -0.280163)"/>
  </g>
</svg>
