<svg viewBox="0 0 1024 1024" xmlns="http://www.w3.org/2000/svg" role="img" aria-label="oc·btc mark">
  <rect width="1024" height="1024" rx="225" ry="225" fill="#55d671"/>
  <path d="M373 1414V1676H531V1414ZM670 1414V1676H829V1414ZM373 -186V76H531V-186ZM670 -186V76H829V-186ZM129 0V1490H705Q863 1490 972.50 1441Q1082 1392 1139 1305.50Q1196 1219 1196 1103Q1196 1016 1164 951Q1132 886 1074 843Q1016 800 937 779V774Q1024 765 1095.50 721Q1167 677 1210 600.50Q1253 524 1253 416Q1253 293 1194.50 199Q1136 105 1020 52.50Q904 0 731 0ZM391 217H700Q838 217 910.50 272.50Q983 328 983 428Q983 497 950 547.50Q917 598 855.50 626Q794 654 707 654H391ZM391 858H688Q762 858 817 883.50Q872 909 902 956Q932 1003 932 1068Q932 1161 868 1217.50Q804 1274 689 1274H391Z" fill="#fafafa" transform="translate(238.3907 806.9912) scale(0.395961 -0.395961)"/>
</svg>
