<svg xmlns="http://www.w3.org/2000/svg" width="1584" height="396" viewBox="0 0 1584 396" role="img" aria-label="oc·btc — linkedin banner (orangecheck/light)">
  <rect width="1584" height="396" fill="#fafafa"/>
  <filter id="aublur" x="-20%" y="-20%" width="140%" height="140%"><feGaussianBlur stdDeviation="47.5"/></filter>
  <mask id="aumask"><rect width="1584" height="396" fill="url(#aufade)"/></mask>
  <defs><radialGradient id="au0" cx="50%" cy="50%" r="50%"><stop offset="0%" stop-color="#f97316" stop-opacity="0.95"/><stop offset="62%" stop-color="#f97316" stop-opacity="0.18"/><stop offset="100%" stop-color="#f97316" stop-opacity="0"/></radialGradient><radialGradient id="au1" cx="50%" cy="50%" r="50%"><stop offset="0%" stop-color="#34c98a" stop-opacity="0.95"/><stop offset="62%" stop-color="#34c98a" stop-opacity="0.18"/><stop offset="100%" stop-color="#34c98a" stop-opacity="0"/></radialGradient><radialGradient id="au2" cx="50%" cy="50%" r="50%"><stop offset="0%" stop-color="#3f9fd1" stop-opacity="0.95"/><stop offset="62%" stop-color="#3f9fd1" stop-opacity="0.18"/><stop offset="100%" stop-color="#3f9fd1" stop-opacity="0"/></radialGradient><radialGradient id="au3" cx="50%" cy="50%" r="50%"><stop offset="0%" stop-color="#f97316" stop-opacity="0.95"/><stop offset="62%" stop-color="#f97316" stop-opacity="0.18"/><stop offset="100%" stop-color="#f97316" stop-opacity="0"/></radialGradient><radialGradient id="au4" cx="50%" cy="50%" r="50%"><stop offset="0%" stop-color="#f97316" stop-opacity="0.95"/><stop offset="62%" stop-color="#f97316" stop-opacity="0.18"/><stop offset="100%" stop-color="#f97316" stop-opacity="0"/></radialGradient><radialGradient id="aufade" cx="50%" cy="38%" r="78%"><stop offset="55%" stop-color="#fff" stop-opacity="1"/><stop offset="100%" stop-color="#fff" stop-opacity="0"/></radialGradient></defs><g opacity="0.4" filter="url(#aublur)" mask="url(#aumask)"><ellipse cx="-79.2" cy="-39.6" rx="728.6" ry="376.2" fill="url(#au0)"/><ellipse cx="538.6" cy="-19.8" rx="665.3" ry="356.4" fill="url(#au1)"/><ellipse cx="1552.3" cy="-31.7" rx="728.6" ry="376.2" fill="url(#au2)"/><ellipse cx="982.1" cy="376.2" rx="633.6" ry="336.6" fill="url(#au3)"/><ellipse cx="190.1" cy="403.9" rx="665.3" ry="336.6" fill="url(#au4)"/></g>
  <g transform="translate(95.0 115.0) scale(0.1621)" fill="#0a0a0a"><path d="M373 1414V1676H531V1414ZM670 1414V1676H829V1414ZM373 -186V76H531V-186ZM670 -186V76H829V-186ZM129 0V1490H705Q863 1490 972.50 1441Q1082 1392 1139 1305.50Q1196 1219 1196 1103Q1196 1016 1164 951Q1132 886 1074 843Q1016 800 937 779V774Q1024 765 1095.50 721Q1167 677 1210 600.50Q1253 524 1253 416Q1253 293 1194.50 199Q1136 105 1020 52.50Q904 0 731 0ZM391 217H700Q838 217 910.50 272.50Q983 328 983 428Q983 497 950 547.50Q917 598 855.50 626Q794 654 707 654H391ZM391 858H688Q762 858 817 883.50Q872 909 902 956Q932 1003 932 1068Q932 1161 868 1217.50Q804 1274 689 1274H391Z" fill="#f97316" transform="translate(238.3907 806.9912) scale(0.395961 -0.395961)"/></g>
  <g fill="#0a0a0a"><path transform="translate(316.48 184.93) scale(0.02900 -0.02900)" d="M592 -24Q436 -24 317.50 46Q199 116 133.50 241.50Q68 367 68 533Q68 699 133.50 825Q199 951 317.50 1021.50Q436 1092 592 1092Q750 1092 867.50 1021.50Q985 951 1050.50 825Q1116 699 1116 533Q1116 367 1050.50 241.50Q985 116 867.50 46Q750 -24 592 -24ZM592 187Q676 187 735.50 230Q795 273 827 351Q859 429 859 533Q859 638 827 716Q795 794 735.50 837.50Q676 881 592 881Q510 881 450 837.50Q390 794 358 716Q326 638 326 533Q326 428 358 350.50Q390 273 449.50 230Q509 187 592 187Z"/>
<path transform="translate(350.85 184.93) scale(0.02900 -0.02900)" d="M589 -24Q433 -24 315.50 46.50Q198 117 133 242.50Q68 368 68 533Q68 698 133 824Q198 950 315.50 1021Q433 1092 589 1092Q687 1092 770 1063.50Q853 1035 916.50 983Q980 931 1019 859.50Q1058 788 1069 701L822 690Q815 733 796 768Q777 803 747.50 828Q718 853 679 867Q640 881 592 881Q507 881 447.50 837.50Q388 794 357 716Q326 638 326 533Q326 429 357 351Q388 273 447.50 230Q507 187 592 187Q641 187 679.50 200.50Q718 214 746.50 239.50Q775 265 793.50 301Q812 337 821 381L1069 370Q1060 283 1021 211.50Q982 140 918.50 87Q855 34 771 5Q687 -24 589 -24Z"/>
<path transform="translate(383.71 184.93) scale(0.02900 -0.02900)" d="M261 551Q196 551 150.50 596.50Q105 642 105 707Q105 773 150.50 818Q196 863 261 863Q326 863 371.50 818Q417 773 417 707Q417 642 371.50 596.50Q326 551 261 551Z"/>
<path transform="translate(398.82 184.93) scale(0.02900 -0.02900)" d="M692 -21Q618 -21 556.50 2Q495 25 449 66.50Q403 108 372 165H368V0H117V1490H372V912H376Q406 966 451.50 1006Q497 1046 558 1068Q619 1090 694 1090Q828 1090 931 1021Q1034 952 1092 827.50Q1150 703 1150 535Q1150 367 1092.50 242Q1035 117 932 48Q829 -21 692 -21ZM630 190Q711 190 769.50 231.50Q828 273 860.50 350Q893 427 893 535Q893 644 860.50 720.50Q828 797 769.50 838Q711 879 630 879Q547 879 486.50 836.50Q426 794 393 717Q360 640 360 535Q360 431 393 353.50Q426 276 487 233Q548 190 630 190Z"/>
<path transform="translate(434.18 184.93) scale(0.02900 -0.02900)" d="M666 1070V867H18V1070ZM196 1353H451V305Q451 248 474.50 225Q498 202 559 202Q582 202 613 203Q644 204 664 204L673 2Q643 -1 600 -2Q557 -3 516 -3Q354 -3 275 65.50Q196 134 196 272Z"/>
<path transform="translate(454.97 184.93) scale(0.02900 -0.02900)" d="M589 -24Q433 -24 315.50 46.50Q198 117 133 242.50Q68 368 68 533Q68 698 133 824Q198 950 315.50 1021Q433 1092 589 1092Q687 1092 770 1063.50Q853 1035 916.50 983Q980 931 1019 859.50Q1058 788 1069 701L822 690Q815 733 796 768Q777 803 747.50 828Q718 853 679 867Q640 881 592 881Q507 881 447.50 837.50Q388 794 357 716Q326 638 326 533Q326 429 357 351Q388 273 447.50 230Q507 187 592 187Q641 187 679.50 200.50Q718 214 746.50 239.50Q775 265 793.50 301Q812 337 821 381L1069 370Q1060 283 1021 211.50Q982 140 918.50 87Q855 34 771 5Q687 -24 589 -24Z"/></g>
  <g fill="#525252"><path transform="translate(316.48 231.66) scale(0.01276 -0.01276)" d="M133 0V1070H298V902H304Q333 985 399.50 1035.50Q466 1086 566 1086Q588 1086 609 1084Q630 1082 642 1080V908Q632 911 603 915.50Q574 920 537 920Q474 920 421 891.50Q368 863 336.50 805.50Q305 748 305 661V0Z"/>
<path transform="translate(325.22 231.66) scale(0.01276 -0.01276)" d="M577 -24Q420 -24 309 47Q198 118 138.50 243.50Q79 369 79 531Q79 695 140.50 821Q202 947 311 1019.50Q420 1092 563 1092Q668 1092 756 1054Q844 1016 908.50 944Q973 872 1008.50 769.50Q1044 667 1044 536V483H176V631H949L873 578Q873 687 835.50 768Q798 849 728.50 893.50Q659 938 563 938Q467 938 397 893Q327 848 288.50 768.50Q250 689 250 585V506Q250 394 289 309.50Q328 225 401 178Q474 131 577 131Q650 131 706.50 153.50Q763 176 800.50 217.50Q838 259 855 314L1026 304Q1005 206 942 132.50Q879 59 785.50 17.50Q692 -24 577 -24Z"/>
<path transform="translate(339.50 231.66) scale(0.01276 -0.01276)" d="M453 -18Q348 -18 264 19Q180 56 131 128.50Q82 201 82 307Q82 399 118 457Q154 515 214.50 547.50Q275 580 351 597Q427 614 506 624Q606 638 665.50 645Q725 652 750.50 668.50Q776 685 776 725V734Q776 795 749 840Q722 885 669.50 911Q617 937 542 937Q468 937 411 912Q354 887 320.50 846Q287 805 279 756L106 768Q120 866 179 937.50Q238 1009 331.50 1048.50Q425 1088 541 1088Q625 1088 699 1066Q773 1044 828.50 999Q884 954 915.50 887Q947 820 947 730V0H777V150H771Q752 112 714 73Q676 34 612.50 8Q549 -18 453 -18ZM479 135Q582 135 648 173Q714 211 745 271.50Q776 332 776 401V538Q766 528 737 519.50Q708 511 667.50 503.50Q627 496 582.50 489Q538 482 498 477Q436 469 381 449.50Q326 430 292 394Q258 358 258 297Q258 246 285 210Q312 174 362 154.50Q412 135 479 135Z"/>
<path transform="translate(353.28 231.66) scale(0.01276 -0.01276)" d="M540 -21Q403 -21 298.50 49Q194 119 136.50 244Q79 369 79 534Q79 700 137 825Q195 950 299 1019Q403 1088 541 1088Q619 1088 681.50 1065Q744 1042 791.50 1001.50Q839 961 869 909H874V1490H1046V0H878V163H872Q839 109 790.50 67.50Q742 26 680 2.50Q618 -21 540 -21ZM567 134Q666 134 737.50 184Q809 234 847 324.50Q885 415 885 535Q885 656 847 745.50Q809 835 737.50 884.50Q666 934 567 934Q472 934 401.50 887Q331 840 292.50 751Q254 662 254 535Q254 408 293 318.50Q332 229 402.50 181.50Q473 134 567 134Z"/>
<path transform="translate(375.04 231.66) scale(0.01276 -0.01276)" d="M589 1070V922H16V1070ZM200 1353H372V264Q372 199 398.50 172.50Q425 146 491 146Q513 146 539.50 147Q566 148 588 149L596 1Q570 -1 538 -2Q506 -3 478 -3Q340 -3 270 60Q200 123 200 246Z"/>
<path transform="translate(383.26 231.66) scale(0.01276 -0.01276)" d="M305 630V0H133V1490H305V810H258Q310 956 403 1022Q496 1088 621 1088Q729 1088 816.50 1041.50Q904 995 955.50 902Q1007 809 1007 668V0H835V655Q835 791 769 861Q703 931 584 931Q507 931 443.50 899Q380 867 342.50 800.50Q305 734 305 630Z"/>
<path transform="translate(397.81 231.66) scale(0.01276 -0.01276)" d="M577 -24Q420 -24 309 47Q198 118 138.50 243.50Q79 369 79 531Q79 695 140.50 821Q202 947 311 1019.50Q420 1092 563 1092Q668 1092 756 1054Q844 1016 908.50 944Q973 872 1008.50 769.50Q1044 667 1044 536V483H176V631H949L873 578Q873 687 835.50 768Q798 849 728.50 893.50Q659 938 563 938Q467 938 397 893Q327 848 288.50 768.50Q250 689 250 585V506Q250 394 289 309.50Q328 225 401 178Q474 131 577 131Q650 131 706.50 153.50Q763 176 800.50 217.50Q838 259 855 314L1026 304Q1005 206 942 132.50Q879 59 785.50 17.50Q692 -24 577 -24Z"/>
<path transform="translate(418.80 231.66) scale(0.01276 -0.01276)" d="M639 -21Q562 -21 499.50 2.50Q437 26 389 67.50Q341 109 307 163H301V0H133V1490H305V909H310Q341 961 388 1001.50Q435 1042 498.50 1065Q562 1088 639 1088Q777 1088 881 1019Q985 950 1042.50 825Q1100 700 1100 534Q1100 369 1042.50 244Q985 119 881 49Q777 -21 639 -21ZM613 134Q708 134 778 181.50Q848 229 887 318.50Q926 408 926 535Q926 662 887 751Q848 840 778 887Q708 934 613 934Q514 934 442 884.50Q370 835 332 745.50Q294 656 294 535Q294 415 332.50 324.50Q371 234 442.50 184Q514 134 613 134Z"/>
<path transform="translate(433.85 231.66) scale(0.01276 -0.01276)" d="M133 0V1070H305V0ZM220 1271Q171 1271 136.50 1305Q102 1339 102 1387Q102 1436 136.50 1470Q171 1504 219 1504Q269 1504 303.50 1470Q338 1436 338 1387Q338 1339 303.50 1305Q269 1271 220 1271Z"/>
<path transform="translate(439.44 231.66) scale(0.01276 -0.01276)" d="M589 1070V922H16V1070ZM200 1353H372V264Q372 199 398.50 172.50Q425 146 491 146Q513 146 539.50 147Q566 148 588 149L596 1Q570 -1 538 -2Q506 -3 478 -3Q340 -3 270 60Q200 123 200 246Z"/>
<path transform="translate(447.66 231.66) scale(0.01276 -0.01276)" d="M573 -24Q426 -24 314.50 47Q203 118 141 243Q79 368 79 532Q79 697 141 823Q203 949 314.50 1020.50Q426 1092 573 1092Q661 1092 736.50 1065.50Q812 1039 871 992Q930 945 968 880Q1006 815 1020 737L848 726Q838 772 815.50 810.50Q793 849 758 877Q723 905 677 920.50Q631 936 573 936Q471 936 399.50 884.50Q328 833 291 742Q254 651 254 532Q254 414 291 324Q328 234 399.50 183Q471 132 573 132Q632 132 677.50 147Q723 162 756 190Q789 218 812 257Q835 296 847 344L1021 333Q1008 256 969.50 190.50Q931 125 871.50 77Q812 29 736.50 2.50Q661 -24 573 -24Z"/>
<path transform="translate(461.61 231.66) scale(0.01276 -0.01276)" d="M573 -24Q426 -24 314.50 47Q203 118 141 243Q79 368 79 532Q79 697 141 823Q203 949 314.50 1020.50Q426 1092 573 1092Q722 1092 833 1020.50Q944 949 1006 823Q1068 697 1068 532Q1068 368 1006 243Q944 118 833 47Q722 -24 573 -24ZM573 132Q676 132 747.50 183Q819 234 856.50 324.50Q894 415 894 532Q894 651 856.50 741.50Q819 832 747.50 884Q676 936 573 936Q471 936 399.50 884.50Q328 833 291 742Q254 651 254 532Q254 414 291 324Q328 234 399.50 183Q471 132 573 132Z"/>
<path transform="translate(476.24 231.66) scale(0.01276 -0.01276)" d="M133 0V1070H305V0ZM220 1271Q171 1271 136.50 1305Q102 1339 102 1387Q102 1436 136.50 1470Q171 1504 219 1504Q269 1504 303.50 1470Q338 1436 338 1387Q338 1339 303.50 1305Q269 1271 220 1271Z"/>
<path transform="translate(481.83 231.66) scale(0.01276 -0.01276)" d="M305 630V0H133V1070H301V810H258Q310 956 403 1022Q496 1088 621 1088Q729 1088 816.50 1041.50Q904 995 955.50 902Q1007 809 1007 668V0H835V655Q835 791 769 861Q703 931 584 931Q507 931 443.50 899Q380 867 342.50 800.50Q305 734 305 630Z"/>
<path transform="translate(503.09 231.66) scale(0.01276 -0.01276)" d="M133 0V1070H301V846H282Q311 926 361.50 980Q412 1034 477 1062Q542 1090 614 1090Q738 1090 822 1018.50Q906 947 927 846H895Q917 915 967 970Q1017 1025 1089.50 1057.50Q1162 1090 1250 1090Q1347 1090 1427 1048Q1507 1006 1554.50 921Q1602 836 1602 706V0H1430V705Q1430 827 1361 879.50Q1292 932 1201 932Q1125 932 1069.50 900Q1014 868 984 812.50Q954 757 954 685V0H781V723Q781 817 718 874.50Q655 932 559 932Q493 932 435 901Q377 870 341 809Q305 748 305 657V0Z"/>
<path transform="translate(525.24 231.66) scale(0.01276 -0.01276)" d="M453 -18Q348 -18 264 19Q180 56 131 128.50Q82 201 82 307Q82 399 118 457Q154 515 214.50 547.50Q275 580 351 597Q427 614 506 624Q606 638 665.50 645Q725 652 750.50 668.50Q776 685 776 725V734Q776 795 749 840Q722 885 669.50 911Q617 937 542 937Q468 937 411 912Q354 887 320.50 846Q287 805 279 756L106 768Q120 866 179 937.50Q238 1009 331.50 1048.50Q425 1088 541 1088Q625 1088 699 1066Q773 1044 828.50 999Q884 954 915.50 887Q947 820 947 730V0H777V150H771Q752 112 714 73Q676 34 612.50 8Q549 -18 453 -18ZM479 135Q582 135 648 173Q714 211 745 271.50Q776 332 776 401V538Q766 528 737 519.50Q708 511 667.50 503.50Q627 496 582.50 489Q538 482 498 477Q436 469 381 449.50Q326 430 292 394Q258 358 258 297Q258 246 285 210Q312 174 362 154.50Q412 135 479 135Z"/>
<path transform="translate(539.02 231.66) scale(0.01276 -0.01276)" d="M133 0V1070H298V902H304Q333 985 399.50 1035.50Q466 1086 566 1086Q588 1086 609 1084Q630 1082 642 1080V908Q632 911 603 915.50Q574 920 537 920Q474 920 421 891.50Q368 863 336.50 805.50Q305 748 305 661V0Z"/>
<path transform="translate(547.76 231.66) scale(0.01276 -0.01276)" d="M294 385V591H312L800 1070H1021L506 563H489ZM133 0V1490H305V0ZM835 0 406 524 528 644 1055 0Z"/>
<path transform="translate(561.26 231.66) scale(0.01276 -0.01276)" d="M577 -24Q420 -24 309 47Q198 118 138.50 243.50Q79 369 79 531Q79 695 140.50 821Q202 947 311 1019.50Q420 1092 563 1092Q668 1092 756 1054Q844 1016 908.50 944Q973 872 1008.50 769.50Q1044 667 1044 536V483H176V631H949L873 578Q873 687 835.50 768Q798 849 728.50 893.50Q659 938 563 938Q467 938 397 893Q327 848 288.50 768.50Q250 689 250 585V506Q250 394 289 309.50Q328 225 401 178Q474 131 577 131Q650 131 706.50 153.50Q763 176 800.50 217.50Q838 259 855 314L1026 304Q1005 206 942 132.50Q879 59 785.50 17.50Q692 -24 577 -24Z"/>
<path transform="translate(575.54 231.66) scale(0.01276 -0.01276)" d="M589 1070V922H16V1070ZM200 1353H372V264Q372 199 398.50 172.50Q425 146 491 146Q513 146 539.50 147Q566 148 588 149L596 1Q570 -1 538 -2Q506 -3 478 -3Q340 -3 270 60Q200 123 200 246Z"/></g>
  <g fill="#f97316"><path transform="translate(316.48 270.47) scale(0.02138 -0.02138)" d="M337 -10Q275 -10 235 21Q195 52 186 107V0H88V730H187V572L185 444Q194 498 234.50 529Q275 560 337 560Q419 560 468 504.50Q517 449 517 354V196Q517 101 468 45.50Q419 -10 337 -10ZM302 76Q357 76 387.50 104.50Q418 133 418 197V353Q418 417 387.50 445.50Q357 474 302 474Q249 474 218 441Q187 408 187 348V202Q187 142 218 109Q249 76 302 76Z"/>
<path transform="translate(329.31 270.47) scale(0.02138 -0.02138)" d="M355 0Q284 0 242.50 41Q201 82 201 150V460H44V550H201V705H300V550H523V460H300V151Q300 124 315.50 107Q331 90 357 90H518V0Z"/>
<path transform="translate(342.14 270.47) scale(0.02138 -0.02138)" d="M308 -10Q207 -10 146 46.50Q85 103 85 202V349Q85 447 146 503.50Q207 560 308 560Q405 560 464.50 508.50Q524 457 527 368H429Q426 418 393.50 445.50Q361 473 308 473Q251 473 217.50 440.50Q184 408 184 349V202Q184 142 217.50 110Q251 78 308 78Q362 78 394 105Q426 132 429 182H527Q524 93 464.50 41.50Q405 -10 308 -10Z"/>
<path transform="translate(354.97 270.47) scale(0.02138 -0.02138)" d="M300 -10Q262 -10 238.50 13Q215 36 215 72Q215 110 238.50 134Q262 158 300 158Q338 158 361.50 134Q385 110 385 72Q385 36 361.50 13Q338 -10 300 -10Z"/>
<path transform="translate(367.80 270.47) scale(0.02138 -0.02138)" d="M300 -8Q199 -8 139.50 50Q80 108 80 212V338Q80 442 139.50 500Q199 558 300 558Q401 558 460.50 500Q520 442 520 338V212Q520 108 460.50 50Q401 -8 300 -8ZM300 79Q356 79 388.50 110.50Q421 142 421 203V347Q421 408 388.50 439.50Q356 471 300 471Q244 471 211.50 439.50Q179 408 179 347V203Q179 142 211.50 110.50Q244 79 300 79Z"/>
<path transform="translate(380.63 270.47) scale(0.02138 -0.02138)" d="M308 -10Q207 -10 146 46.50Q85 103 85 202V349Q85 447 146 503.50Q207 560 308 560Q405 560 464.50 508.50Q524 457 527 368H429Q426 418 393.50 445.50Q361 473 308 473Q251 473 217.50 440.50Q184 408 184 349V202Q184 142 217.50 110Q251 78 308 78Q362 78 394 105Q426 132 429 182H527Q524 93 464.50 41.50Q405 -10 308 -10Z"/>
<path transform="translate(393.46 270.47) scale(0.02138 -0.02138)" d="M88 0V730H187V550L186 445H187Q194 499 232.50 529.50Q271 560 334 560Q416 560 465 508Q514 456 514 368V0H415V353Q415 412 385 444Q355 476 303 476Q249 476 218 442.50Q187 409 187 349V0Z"/>
<path transform="translate(406.29 270.47) scale(0.02138 -0.02138)" d="M93 0V730H192V326H293L441 550H553L380 287L562 0H448L294 241H192V0Z"/>
<path transform="translate(419.12 270.47) scale(0.02138 -0.02138)" d="M300 -10Q262 -10 238.50 13Q215 36 215 72Q215 110 238.50 134Q262 158 300 158Q338 158 361.50 134Q385 110 385 72Q385 36 361.50 13Q338 -10 300 -10Z"/>
<path transform="translate(431.95 270.47) scale(0.02138 -0.02138)" d="M83 0V90H276V460H103V550H375V90H556V0ZM316 647Q282 647 262 664.50Q242 682 242 712Q242 743 262 761Q282 779 316 779Q350 779 370 761Q390 743 390 712Q390 682 370 664.50Q350 647 316 647Z"/>
<path transform="translate(444.78 270.47) scale(0.02138 -0.02138)" d="M300 -8Q199 -8 139.50 50Q80 108 80 212V338Q80 442 139.50 500Q199 558 300 558Q401 558 460.50 500Q520 442 520 338V212Q520 108 460.50 50Q401 -8 300 -8ZM300 79Q356 79 388.50 110.50Q421 142 421 203V347Q421 408 388.50 439.50Q356 471 300 471Q244 471 211.50 439.50Q179 408 179 347V203Q179 142 211.50 110.50Q244 79 300 79Z"/></g>
</svg>
