<svg viewBox="0 0 1024 1024" xmlns="http://www.w3.org/2000/svg" role="img" aria-label="oc·attest mark">
  <rect width="1024" height="1024" fill="#55d671"/>
  <g transform="scale(42.666667 42.666667)"><path d="M3.85 8.62a4 4 0 0 1 4.78-4.77 4 4 0 0 1 6.74 0 4 4 0 0 1 4.78 4.78 4 4 0 0 1 0 6.74 4 4 0 0 1-4.77 4.78 4 4 0 0 1-6.75 0 4 4 0 0 1-4.78-4.77 4 4 0 0 1 0-6.76Z" fill="#fafafa" stroke="#fafafa" stroke-width="0.5"/><path d="M9 12 l2 2 l4 -4" fill="none" stroke="#fafafa" stroke-width="2" stroke-linecap="round" stroke-linejoin="round"/></g>
</svg>
