<svg viewBox="0 0 1024 1024" xmlns="http://www.w3.org/2000/svg" role="img" aria-label="oc·fleet aurora mark">
  <rect width="1024" height="1024" fill="#fafafa"/>
  <g transform="translate(204 204)">
    <defs><radialGradient id="xoc·fleet aurora markf0" cx="50%" cy="50%" r="50%"><stop offset="0%" stop-color="#f97316" stop-opacity="0.96"/><stop offset="52%" stop-color="#f97316" stop-opacity="0.30"/><stop offset="100%" stop-color="#f97316" stop-opacity="0"/></radialGradient><radialGradient id="xoc·fleet aurora markf1" cx="50%" cy="50%" r="50%"><stop offset="0%" stop-color="#f97316" stop-opacity="0.96"/><stop offset="52%" stop-color="#f97316" stop-opacity="0.30"/><stop offset="100%" stop-color="#f97316" stop-opacity="0"/></radialGradient><radialGradient id="xoc·fleet aurora markf2" cx="50%" cy="50%" r="50%"><stop offset="0%" stop-color="#f97316" stop-opacity="0.82"/><stop offset="52%" stop-color="#f97316" stop-opacity="0.26"/><stop offset="100%" stop-color="#f97316" stop-opacity="0"/></radialGradient><radialGradient id="xoc·fleet aurora markf3" cx="50%" cy="50%" r="50%"><stop offset="0%" stop-color="#34c98a" stop-opacity="0.60"/><stop offset="52%" stop-color="#34c98a" stop-opacity="0.19"/><stop offset="100%" stop-color="#34c98a" stop-opacity="0"/></radialGradient><radialGradient id="xoc·fleet aurora markf4" cx="50%" cy="50%" r="50%"><stop offset="0%" stop-color="#3f9fd1" stop-opacity="0.60"/><stop offset="52%" stop-color="#3f9fd1" stop-opacity="0.19"/><stop offset="100%" stop-color="#3f9fd1" stop-opacity="0"/></radialGradient><filter id="xoc·fleet aurora markb" x="-30%" y="-30%" width="160%" height="160%"><feGaussianBlur stdDeviation="52.4"/></filter><clipPath id="xoc·fleet aurora markc"><g transform="scale(25.666667 25.666667)"><rect x="3" y="3" width="18" height="18" fill="#ffffff"/><rect x="6" y="6" width="12" height="12" fill="none" stroke="#ffffff" stroke-width="1.5"/><path d="M8.5 9.5 L11 12 L8.5 14.5" fill="none" stroke="#ffffff" stroke-width="1.6" stroke-linejoin="miter" stroke-linecap="square"/><rect x="12" y="14" width="4" height="1.4" fill="#ffffff"/></g></clipPath></defs><g clip-path="url(#xoc·fleet aurora markc)"><rect width="616" height="616" fill="#ffffff"/><g opacity="0.95" filter="url(#xoc·fleet aurora markb)"><circle cx="123.2" cy="98.6" r="406.6" fill="url(#xoc·fleet aurora markf0)"/><circle cx="320.3" cy="338.8" r="357.3" fill="url(#xoc·fleet aurora markf1)"/><circle cx="110.9" cy="542.1" r="345.0" fill="url(#xoc·fleet aurora markf2)"/><circle cx="529.8" cy="92.4" r="308.0" fill="url(#xoc·fleet aurora markf3)"/><circle cx="542.1" cy="517.4" r="320.3" fill="url(#xoc·fleet aurora markf4)"/></g></g><g transform="scale(25.666667 25.666667)"><rect x="3" y="3" width="18" height="18" fill="none"/><rect x="6" y="6" width="12" height="12" fill="none" stroke="#0a0a0a" stroke-width="1.5"/><path d="M8.5 9.5 L11 12 L8.5 14.5" fill="none" stroke="#0a0a0a" stroke-width="1.6" stroke-linejoin="miter" stroke-linecap="square"/><rect x="12" y="14" width="4" height="1.4" fill="#0a0a0a"/></g>
  </g>
</svg>
