<svg viewBox="0 0 1024 1024" xmlns="http://www.w3.org/2000/svg" role="img" aria-label="oc·vault aurora mark">
  <circle cx="512" cy="512" r="512" fill="#fafafa"/>
  <defs><radialGradient id="xoc·vault aurora markf0" cx="50%" cy="50%" r="50%"><stop offset="0%" stop-color="#da6736" stop-opacity="0.96"/><stop offset="52%" stop-color="#da6736" stop-opacity="0.30"/><stop offset="100%" stop-color="#da6736" stop-opacity="0"/></radialGradient><radialGradient id="xoc·vault aurora markf1" cx="50%" cy="50%" r="50%"><stop offset="0%" stop-color="#da6736" stop-opacity="0.96"/><stop offset="52%" stop-color="#da6736" stop-opacity="0.30"/><stop offset="100%" stop-color="#da6736" stop-opacity="0"/></radialGradient><radialGradient id="xoc·vault aurora markf2" cx="50%" cy="50%" r="50%"><stop offset="0%" stop-color="#da6736" stop-opacity="0.82"/><stop offset="52%" stop-color="#da6736" stop-opacity="0.26"/><stop offset="100%" stop-color="#da6736" stop-opacity="0"/></radialGradient><radialGradient id="xoc·vault aurora markf3" cx="50%" cy="50%" r="50%"><stop offset="0%" stop-color="#34c98a" stop-opacity="0.60"/><stop offset="52%" stop-color="#34c98a" stop-opacity="0.19"/><stop offset="100%" stop-color="#34c98a" stop-opacity="0"/></radialGradient><radialGradient id="xoc·vault aurora markf4" cx="50%" cy="50%" r="50%"><stop offset="0%" stop-color="#3f9fd1" stop-opacity="0.60"/><stop offset="52%" stop-color="#3f9fd1" stop-opacity="0.19"/><stop offset="100%" stop-color="#3f9fd1" stop-opacity="0"/></radialGradient><filter id="xoc·vault aurora markb" x="-30%" y="-30%" width="160%" height="160%"><feGaussianBlur stdDeviation="87.0"/></filter><clipPath id="xoc·vault aurora markc"><g transform="scale(42.666667 42.666667)"><path d="M8 9 L8 6.5 Q8 3.5 12 3.5 Q16 3.5 16 6.5 L16 9" fill="none" stroke="#ffffff" stroke-width="2" stroke-linecap="square"/><rect x="4" y="9" width="16" height="12" fill="#ffffff" stroke="#ffffff" stroke-width="0.75"/><circle cx="12" cy="14.5" r="2.75" fill="none" stroke="#ffffff" stroke-width="1.5"/><rect x="11.4" y="14.5" width="1.2" height="3.25" fill="#ffffff"/><rect x="5.5" y="19" width="2.25" height="1.5" fill="#ffffff"/><rect x="16.25" y="19" width="2.25" height="1.5" fill="#ffffff"/></g></clipPath></defs><g clip-path="url(#xoc·vault aurora markc)"><rect width="1024" height="1024" fill="#ffffff"/><g opacity="0.95" filter="url(#xoc·vault aurora markb)"><circle cx="204.8" cy="163.8" r="675.8" fill="url(#xoc·vault aurora markf0)"/><circle cx="532.5" cy="563.2" r="593.9" fill="url(#xoc·vault aurora markf1)"/><circle cx="184.3" cy="901.1" r="573.4" fill="url(#xoc·vault aurora markf2)"/><circle cx="880.6" cy="153.6" r="512.0" fill="url(#xoc·vault aurora markf3)"/><circle cx="901.1" cy="860.2" r="532.5" fill="url(#xoc·vault aurora markf4)"/></g></g><g transform="scale(42.666667 42.666667)"><path d="M8 9 L8 6.5 Q8 3.5 12 3.5 Q16 3.5 16 6.5 L16 9" fill="none" stroke="#0a0a0a" stroke-width="2" stroke-linecap="square"/><rect x="4" y="9" width="16" height="12" fill="none" stroke="#0a0a0a" stroke-width="0.75"/><circle cx="12" cy="14.5" r="2.75" fill="none" stroke="#0a0a0a" stroke-width="1.5"/><rect x="11.4" y="14.5" width="1.2" height="3.25" fill="#0a0a0a"/><rect x="5.5" y="19" width="2.25" height="1.5" fill="#0a0a0a"/><rect x="16.25" y="19" width="2.25" height="1.5" fill="#0a0a0a"/></g>
</svg>
