<svg xmlns="http://www.w3.org/2000/svg" width="1600" height="900" viewBox="0 0 1600 900" role="img" aria-label="oc·chat — x-post banner (phosphor/dark)">
  <rect width="1600" height="900" fill="#0a0a0a"/>
  <filter id="aublur" x="-20%" y="-20%" width="140%" height="140%"><feGaussianBlur stdDeviation="108.0"/></filter>
  <mask id="aumask"><rect width="1600" height="900" fill="url(#aufade)"/></mask>
  <defs><radialGradient id="au0" cx="50%" cy="50%" r="50%"><stop offset="0%" stop-color="#55d671" stop-opacity="0.95"/><stop offset="62%" stop-color="#55d671" stop-opacity="0.18"/><stop offset="100%" stop-color="#55d671" stop-opacity="0"/></radialGradient><radialGradient id="au1" cx="50%" cy="50%" r="50%"><stop offset="0%" stop-color="#34c98a" stop-opacity="0.95"/><stop offset="62%" stop-color="#34c98a" stop-opacity="0.18"/><stop offset="100%" stop-color="#34c98a" stop-opacity="0"/></radialGradient><radialGradient id="au2" cx="50%" cy="50%" r="50%"><stop offset="0%" stop-color="#3f9fd1" stop-opacity="0.95"/><stop offset="62%" stop-color="#3f9fd1" stop-opacity="0.18"/><stop offset="100%" stop-color="#3f9fd1" stop-opacity="0"/></radialGradient><radialGradient id="au3" cx="50%" cy="50%" r="50%"><stop offset="0%" stop-color="#55d671" stop-opacity="0.95"/><stop offset="62%" stop-color="#55d671" stop-opacity="0.18"/><stop offset="100%" stop-color="#55d671" stop-opacity="0"/></radialGradient><radialGradient id="au4" cx="50%" cy="50%" r="50%"><stop offset="0%" stop-color="#55d671" stop-opacity="0.95"/><stop offset="62%" stop-color="#55d671" stop-opacity="0.18"/><stop offset="100%" stop-color="#55d671" stop-opacity="0"/></radialGradient><radialGradient id="aufade" cx="50%" cy="38%" r="78%"><stop offset="55%" stop-color="#fff" stop-opacity="1"/><stop offset="100%" stop-color="#fff" stop-opacity="0"/></radialGradient></defs><g opacity="0.62" filter="url(#aublur)" mask="url(#aumask)"><ellipse cx="-80.0" cy="-90.0" rx="736.0" ry="855.0" fill="url(#au0)"/><ellipse cx="544.0" cy="-45.0" rx="672.0" ry="810.0" fill="url(#au1)"/><ellipse cx="1568.0" cy="-72.0" rx="736.0" ry="855.0" fill="url(#au2)"/><ellipse cx="992.0" cy="855.0" rx="640.0" ry="765.0" fill="url(#au3)"/><ellipse cx="192.0" cy="918.0" rx="672.0" ry="765.0" fill="url(#au4)"/></g>
  <g transform="translate(96.0 261.0) scale(0.3691)" fill="#fafafa"><g transform="scale(42.666667 42.666667)"><path d="M5 4 H19 A2 2 0 0 1 21 6 V13 A2 2 0 0 1 19 15 H11 L7 19 V15 H5 A2 2 0 0 1 3 13 V6 A2 2 0 0 1 5 4 Z" fill="#55d671" stroke="#55d671" stroke-width="1.6" stroke-linejoin="round"/><circle cx="8" cy="9.5" r="1.15" fill="#0a0a0a"/><circle cx="12" cy="9.5" r="1.15" fill="#0a0a0a"/><circle cx="16" cy="9.5" r="1.15" fill="#0a0a0a"/></g></g>
  <g fill="#fafafa"><path transform="translate(530.00 427.12) scale(0.06592 -0.06592)" d="M592 -24Q436 -24 317.50 46Q199 116 133.50 241.50Q68 367 68 533Q68 699 133.50 825Q199 951 317.50 1021.50Q436 1092 592 1092Q750 1092 867.50 1021.50Q985 951 1050.50 825Q1116 699 1116 533Q1116 367 1050.50 241.50Q985 116 867.50 46Q750 -24 592 -24ZM592 187Q676 187 735.50 230Q795 273 827 351Q859 429 859 533Q859 638 827 716Q795 794 735.50 837.50Q676 881 592 881Q510 881 450 837.50Q390 794 358 716Q326 638 326 533Q326 428 358 350.50Q390 273 449.50 230Q509 187 592 187Z"/>
<path transform="translate(608.11 427.12) scale(0.06592 -0.06592)" d="M589 -24Q433 -24 315.50 46.50Q198 117 133 242.50Q68 368 68 533Q68 698 133 824Q198 950 315.50 1021Q433 1092 589 1092Q687 1092 770 1063.50Q853 1035 916.50 983Q980 931 1019 859.50Q1058 788 1069 701L822 690Q815 733 796 768Q777 803 747.50 828Q718 853 679 867Q640 881 592 881Q507 881 447.50 837.50Q388 794 357 716Q326 638 326 533Q326 429 357 351Q388 273 447.50 230Q507 187 592 187Q641 187 679.50 200.50Q718 214 746.50 239.50Q775 265 793.50 301Q812 337 821 381L1069 370Q1060 283 1021 211.50Q982 140 918.50 87Q855 34 771 5Q687 -24 589 -24Z"/>
<path transform="translate(682.80 427.12) scale(0.06592 -0.06592)" d="M261 551Q196 551 150.50 596.50Q105 642 105 707Q105 773 150.50 818Q196 863 261 863Q326 863 371.50 818Q417 773 417 707Q417 642 371.50 596.50Q326 551 261 551Z"/>
<path transform="translate(717.14 427.12) scale(0.06592 -0.06592)" d="M589 -24Q433 -24 315.50 46.50Q198 117 133 242.50Q68 368 68 533Q68 698 133 824Q198 950 315.50 1021Q433 1092 589 1092Q687 1092 770 1063.50Q853 1035 916.50 983Q980 931 1019 859.50Q1058 788 1069 701L822 690Q815 733 796 768Q777 803 747.50 828Q718 853 679 867Q640 881 592 881Q507 881 447.50 837.50Q388 794 357 716Q326 638 326 533Q326 429 357 351Q388 273 447.50 230Q507 187 592 187Q641 187 679.50 200.50Q718 214 746.50 239.50Q775 265 793.50 301Q812 337 821 381L1069 370Q1060 283 1021 211.50Q982 140 918.50 87Q855 34 771 5Q687 -24 589 -24Z"/>
<path transform="translate(791.83 427.12) scale(0.06592 -0.06592)" d="M372 610V0H117V1490H371V799H323Q373 941 465.50 1015.50Q558 1090 695 1090Q807 1090 892 1041.50Q977 993 1025 900Q1073 807 1073 671V0H819V631Q819 747 762.50 807.50Q706 868 604 868Q538 868 485 840.50Q432 813 402 755.50Q372 698 372 610Z"/>
<path transform="translate(870.33 427.12) scale(0.06592 -0.06592)" d="M438 -18Q332 -18 249.50 18Q167 54 119 125.50Q71 197 71 303Q71 394 105 453.50Q139 513 197.50 548.50Q256 584 331.50 602.50Q407 621 488 629Q586 640 644 648.50Q702 657 728 674Q754 691 754 727V734Q754 782 731 817.50Q708 853 665 873Q622 893 560 893Q498 893 451.50 873Q405 853 377 819Q349 785 343 742L101 753Q113 857 172.50 932Q232 1007 332 1048.50Q432 1090 564 1090Q662 1090 743 1066.50Q824 1043 883 997Q942 951 974 883Q1006 815 1006 726V0H758V150H752Q728 103 687 64.50Q646 26 585 4Q524 -18 438 -18ZM501 170Q583 170 639.50 200.50Q696 231 725.50 281.50Q755 332 755 393V512Q743 503 718.50 496Q694 489 661 482.50Q628 476 591.50 470Q555 464 519 459Q464 451 418.50 433.50Q373 416 345.50 385Q318 354 318 305Q318 263 341 232.50Q364 202 405 186Q446 170 501 170Z"/>
<path transform="translate(944.36 427.12) scale(0.06592 -0.06592)" d="M666 1070V867H18V1070ZM196 1353H451V305Q451 248 474.50 225Q498 202 559 202Q582 202 613 203Q644 204 664 204L673 2Q643 -1 600 -2Q557 -3 516 -3Q354 -3 275 65.50Q196 134 196 272Z"/></g>
  <g fill="#a3a3a3"><path transform="translate(530.00 519.68) scale(0.02235 -0.02235)" d="M639 -21Q562 -21 499.50 2.50Q437 26 389 67.50Q341 109 307 163H301V0H133V1490H305V909H310Q341 961 388 1001.50Q435 1042 498.50 1065Q562 1088 639 1088Q777 1088 881 1019Q985 950 1042.50 825Q1100 700 1100 534Q1100 369 1042.50 244Q985 119 881 49Q777 -21 639 -21ZM613 134Q708 134 778 181.50Q848 229 887 318.50Q926 408 926 535Q926 662 887 751Q848 840 778 887Q708 934 613 934Q514 934 442 884.50Q370 835 332 745.50Q294 656 294 535Q294 415 332.50 324.50Q371 234 442.50 184Q514 134 613 134Z"/>
<path transform="translate(556.35 519.68) scale(0.02235 -0.02235)" d="M133 0V1070H305V0ZM220 1271Q171 1271 136.50 1305Q102 1339 102 1387Q102 1436 136.50 1470Q171 1504 219 1504Q269 1504 303.50 1470Q338 1436 338 1387Q338 1339 303.50 1305Q269 1271 220 1271Z"/>
<path transform="translate(566.14 519.68) scale(0.02235 -0.02235)" d="M589 1070V922H16V1070ZM200 1353H372V264Q372 199 398.50 172.50Q425 146 491 146Q513 146 539.50 147Q566 148 588 149L596 1Q570 -1 538 -2Q506 -3 478 -3Q340 -3 270 60Q200 123 200 246Z"/>
<path transform="translate(580.53 519.68) scale(0.02235 -0.02235)" d="M573 -24Q426 -24 314.50 47Q203 118 141 243Q79 368 79 532Q79 697 141 823Q203 949 314.50 1020.50Q426 1092 573 1092Q661 1092 736.50 1065.50Q812 1039 871 992Q930 945 968 880Q1006 815 1020 737L848 726Q838 772 815.50 810.50Q793 849 758 877Q723 905 677 920.50Q631 936 573 936Q471 936 399.50 884.50Q328 833 291 742Q254 651 254 532Q254 414 291 324Q328 234 399.50 183Q471 132 573 132Q632 132 677.50 147Q723 162 756 190Q789 218 812 257Q835 296 847 344L1021 333Q1008 256 969.50 190.50Q931 125 871.50 77Q812 29 736.50 2.50Q661 -24 573 -24Z"/>
<path transform="translate(604.95 519.68) scale(0.02235 -0.02235)" d="M573 -24Q426 -24 314.50 47Q203 118 141 243Q79 368 79 532Q79 697 141 823Q203 949 314.50 1020.50Q426 1092 573 1092Q722 1092 833 1020.50Q944 949 1006 823Q1068 697 1068 532Q1068 368 1006 243Q944 118 833 47Q722 -24 573 -24ZM573 132Q676 132 747.50 183Q819 234 856.50 324.50Q894 415 894 532Q894 651 856.50 741.50Q819 832 747.50 884Q676 936 573 936Q471 936 399.50 884.50Q328 833 291 742Q254 651 254 532Q254 414 291 324Q328 234 399.50 183Q471 132 573 132Z"/>
<path transform="translate(630.58 519.68) scale(0.02235 -0.02235)" d="M133 0V1070H305V0ZM220 1271Q171 1271 136.50 1305Q102 1339 102 1387Q102 1436 136.50 1470Q171 1504 219 1504Q269 1504 303.50 1470Q338 1436 338 1387Q338 1339 303.50 1305Q269 1271 220 1271Z"/>
<path transform="translate(640.37 519.68) scale(0.02235 -0.02235)" d="M305 630V0H133V1070H301V810H258Q310 956 403 1022Q496 1088 621 1088Q729 1088 816.50 1041.50Q904 995 955.50 902Q1007 809 1007 668V0H835V655Q835 791 769 861Q703 931 584 931Q507 931 443.50 899Q380 867 342.50 800.50Q305 734 305 630Z"/>
<path transform="translate(665.85 519.68) scale(0.02235 -0.02235)" d="M772 695V534H120V695Z"/>
<path transform="translate(685.78 519.68) scale(0.02235 -0.02235)" d="M305 630V0H133V1070H301V810H258Q310 956 403 1022Q496 1088 621 1088Q729 1088 816.50 1041.50Q904 995 955.50 902Q1007 809 1007 668V0H835V655Q835 791 769 861Q703 931 584 931Q507 931 443.50 899Q380 867 342.50 800.50Q305 734 305 630Z"/>
<path transform="translate(711.26 519.68) scale(0.02235 -0.02235)" d="M453 -18Q348 -18 264 19Q180 56 131 128.50Q82 201 82 307Q82 399 118 457Q154 515 214.50 547.50Q275 580 351 597Q427 614 506 624Q606 638 665.50 645Q725 652 750.50 668.50Q776 685 776 725V734Q776 795 749 840Q722 885 669.50 911Q617 937 542 937Q468 937 411 912Q354 887 320.50 846Q287 805 279 756L106 768Q120 866 179 937.50Q238 1009 331.50 1048.50Q425 1088 541 1088Q625 1088 699 1066Q773 1044 828.50 999Q884 954 915.50 887Q947 820 947 730V0H777V150H771Q752 112 714 73Q676 34 612.50 8Q549 -18 453 -18ZM479 135Q582 135 648 173Q714 211 745 271.50Q776 332 776 401V538Q766 528 737 519.50Q708 511 667.50 503.50Q627 496 582.50 489Q538 482 498 477Q436 469 381 449.50Q326 430 292 394Q258 358 258 297Q258 246 285 210Q312 174 362 154.50Q412 135 479 135Z"/>
<path transform="translate(735.39 519.68) scale(0.02235 -0.02235)" d="M589 1070V922H16V1070ZM200 1353H372V264Q372 199 398.50 172.50Q425 146 491 146Q513 146 539.50 147Q566 148 588 149L596 1Q570 -1 538 -2Q506 -3 478 -3Q340 -3 270 60Q200 123 200 246Z"/>
<path transform="translate(749.78 519.68) scale(0.02235 -0.02235)" d="M133 0V1070H305V0ZM220 1271Q171 1271 136.50 1305Q102 1339 102 1387Q102 1436 136.50 1470Q171 1504 219 1504Q269 1504 303.50 1470Q338 1436 338 1387Q338 1339 303.50 1305Q269 1271 220 1271Z"/>
<path transform="translate(759.57 519.68) scale(0.02235 -0.02235)" d="M448 0 35 1070H222L452 450Q483 368 509.50 286Q536 204 562 123H515Q542 204 567.50 286Q593 368 623 450L851 1070H1036L623 0Z"/>
<path transform="translate(783.51 519.68) scale(0.02235 -0.02235)" d="M577 -24Q420 -24 309 47Q198 118 138.50 243.50Q79 369 79 531Q79 695 140.50 821Q202 947 311 1019.50Q420 1092 563 1092Q668 1092 756 1054Q844 1016 908.50 944Q973 872 1008.50 769.50Q1044 667 1044 536V483H176V631H949L873 578Q873 687 835.50 768Q798 849 728.50 893.50Q659 938 563 938Q467 938 397 893Q327 848 288.50 768.50Q250 689 250 585V506Q250 394 289 309.50Q328 225 401 178Q474 131 577 131Q650 131 706.50 153.50Q763 176 800.50 217.50Q838 259 855 314L1026 304Q1005 206 942 132.50Q879 59 785.50 17.50Q692 -24 577 -24Z"/>
<path transform="translate(820.27 519.68) scale(0.02235 -0.02235)" d="M577 -24Q420 -24 309 47Q198 118 138.50 243.50Q79 369 79 531Q79 695 140.50 821Q202 947 311 1019.50Q420 1092 563 1092Q668 1092 756 1054Q844 1016 908.50 944Q973 872 1008.50 769.50Q1044 667 1044 536V483H176V631H949L873 578Q873 687 835.50 768Q798 849 728.50 893.50Q659 938 563 938Q467 938 397 893Q327 848 288.50 768.50Q250 689 250 585V506Q250 394 289 309.50Q328 225 401 178Q474 131 577 131Q650 131 706.50 153.50Q763 176 800.50 217.50Q838 259 855 314L1026 304Q1005 206 942 132.50Q879 59 785.50 17.50Q692 -24 577 -24Z"/>
<path transform="translate(845.27 519.68) scale(0.02235 -0.02235)" d="M305 630V0H133V1070H301V810H258Q310 956 403 1022Q496 1088 621 1088Q729 1088 816.50 1041.50Q904 995 955.50 902Q1007 809 1007 668V0H835V655Q835 791 769 861Q703 931 584 931Q507 931 443.50 899Q380 867 342.50 800.50Q305 734 305 630Z"/>
<path transform="translate(870.75 519.68) scale(0.02235 -0.02235)" d="M540 -21Q403 -21 298.50 49Q194 119 136.50 244Q79 369 79 534Q79 700 137 825Q195 950 299 1019Q403 1088 541 1088Q619 1088 681.50 1065Q744 1042 791.50 1001.50Q839 961 869 909H874V1490H1046V0H878V163H872Q839 109 790.50 67.50Q742 26 680 2.50Q618 -21 540 -21ZM567 134Q666 134 737.50 184Q809 234 847 324.50Q885 415 885 535Q885 656 847 745.50Q809 835 737.50 884.50Q666 934 567 934Q472 934 401.50 887Q331 840 292.50 751Q254 662 254 535Q254 408 293 318.50Q332 229 402.50 181.50Q473 134 567 134Z"/>
<path transform="translate(897.10 519.68) scale(0.02235 -0.02235)" d="M772 695V534H120V695Z"/>
<path transform="translate(917.03 519.68) scale(0.02235 -0.02235)" d="M589 1070V922H16V1070ZM200 1353H372V264Q372 199 398.50 172.50Q425 146 491 146Q513 146 539.50 147Q566 148 588 149L596 1Q570 -1 538 -2Q506 -3 478 -3Q340 -3 270 60Q200 123 200 246Z"/>
<path transform="translate(931.42 519.68) scale(0.02235 -0.02235)" d="M573 -24Q426 -24 314.50 47Q203 118 141 243Q79 368 79 532Q79 697 141 823Q203 949 314.50 1020.50Q426 1092 573 1092Q722 1092 833 1020.50Q944 949 1006 823Q1068 697 1068 532Q1068 368 1006 243Q944 118 833 47Q722 -24 573 -24ZM573 132Q676 132 747.50 183Q819 234 856.50 324.50Q894 415 894 532Q894 651 856.50 741.50Q819 832 747.50 884Q676 936 573 936Q471 936 399.50 884.50Q328 833 291 742Q254 651 254 532Q254 414 291 324Q328 234 399.50 183Q471 132 573 132Z"/>
<path transform="translate(957.05 519.68) scale(0.02235 -0.02235)" d="M772 695V534H120V695Z"/>
<path transform="translate(976.99 519.68) scale(0.02235 -0.02235)" d="M577 -24Q420 -24 309 47Q198 118 138.50 243.50Q79 369 79 531Q79 695 140.50 821Q202 947 311 1019.50Q420 1092 563 1092Q668 1092 756 1054Q844 1016 908.50 944Q973 872 1008.50 769.50Q1044 667 1044 536V483H176V631H949L873 578Q873 687 835.50 768Q798 849 728.50 893.50Q659 938 563 938Q467 938 397 893Q327 848 288.50 768.50Q250 689 250 585V506Q250 394 289 309.50Q328 225 401 178Q474 131 577 131Q650 131 706.50 153.50Q763 176 800.50 217.50Q838 259 855 314L1026 304Q1005 206 942 132.50Q879 59 785.50 17.50Q692 -24 577 -24Z"/>
<path transform="translate(1001.99 519.68) scale(0.02235 -0.02235)" d="M305 630V0H133V1070H301V810H258Q310 956 403 1022Q496 1088 621 1088Q729 1088 816.50 1041.50Q904 995 955.50 902Q1007 809 1007 668V0H835V655Q835 791 769 861Q703 931 584 931Q507 931 443.50 899Q380 867 342.50 800.50Q305 734 305 630Z"/>
<path transform="translate(1027.47 519.68) scale(0.02235 -0.02235)" d="M540 -21Q403 -21 298.50 49Q194 119 136.50 244Q79 369 79 534Q79 700 137 825Q195 950 299 1019Q403 1088 541 1088Q619 1088 681.50 1065Q744 1042 791.50 1001.50Q839 961 869 909H874V1490H1046V0H878V163H872Q839 109 790.50 67.50Q742 26 680 2.50Q618 -21 540 -21ZM567 134Q666 134 737.50 184Q809 234 847 324.50Q885 415 885 535Q885 656 847 745.50Q809 835 737.50 884.50Q666 934 567 934Q472 934 401.50 887Q331 840 292.50 751Q254 662 254 535Q254 408 293 318.50Q332 229 402.50 181.50Q473 134 567 134Z"/>
<path transform="translate(1065.57 519.68) scale(0.02235 -0.02235)" d="M577 -24Q420 -24 309 47Q198 118 138.50 243.50Q79 369 79 531Q79 695 140.50 821Q202 947 311 1019.50Q420 1092 563 1092Q668 1092 756 1054Q844 1016 908.50 944Q973 872 1008.50 769.50Q1044 667 1044 536V483H176V631H949L873 578Q873 687 835.50 768Q798 849 728.50 893.50Q659 938 563 938Q467 938 397 893Q327 848 288.50 768.50Q250 689 250 585V506Q250 394 289 309.50Q328 225 401 178Q474 131 577 131Q650 131 706.50 153.50Q763 176 800.50 217.50Q838 259 855 314L1026 304Q1005 206 942 132.50Q879 59 785.50 17.50Q692 -24 577 -24Z"/>
<path transform="translate(1090.58 519.68) scale(0.02235 -0.02235)" d="M305 630V0H133V1070H301V810H258Q310 956 403 1022Q496 1088 621 1088Q729 1088 816.50 1041.50Q904 995 955.50 902Q1007 809 1007 668V0H835V655Q835 791 769 861Q703 931 584 931Q507 931 443.50 899Q380 867 342.50 800.50Q305 734 305 630Z"/>
<path transform="translate(1116.05 519.68) scale(0.02235 -0.02235)" d="M573 -24Q426 -24 314.50 47Q203 118 141 243Q79 368 79 532Q79 697 141 823Q203 949 314.50 1020.50Q426 1092 573 1092Q661 1092 736.50 1065.50Q812 1039 871 992Q930 945 968 880Q1006 815 1020 737L848 726Q838 772 815.50 810.50Q793 849 758 877Q723 905 677 920.50Q631 936 573 936Q471 936 399.50 884.50Q328 833 291 742Q254 651 254 532Q254 414 291 324Q328 234 399.50 183Q471 132 573 132Q632 132 677.50 147Q723 162 756 190Q789 218 812 257Q835 296 847 344L1021 333Q1008 256 969.50 190.50Q931 125 871.50 77Q812 29 736.50 2.50Q661 -24 573 -24Z"/>
<path transform="translate(1140.48 519.68) scale(0.02235 -0.02235)" d="M133 0V1070H298V902H304Q333 985 399.50 1035.50Q466 1086 566 1086Q588 1086 609 1084Q630 1082 642 1080V908Q632 911 603 915.50Q574 920 537 920Q474 920 421 891.50Q368 863 336.50 805.50Q305 748 305 661V0Z"/>
<path transform="translate(1155.79 519.68) scale(0.02235 -0.02235)" d="M135 -415 146 -264 231 -265Q269 -268 298.50 -256Q328 -244 352.50 -214Q377 -184 396 -132L448 6L35 1070H222L452 450Q483 367 510 285.50Q537 204 563 123H513Q539 204 566.50 286Q594 368 624 450L851 1070H1036L548 -190Q518 -265 474 -316Q430 -367 372.50 -393.50Q315 -420 246 -420Q215 -420 187 -418.50Q159 -417 135 -415Z"/>
<path transform="translate(1179.72 519.68) scale(0.02235 -0.02235)" d="M133 -418V1070H301V909H307Q338 961 386 1001.50Q434 1042 498 1065Q562 1088 639 1088Q777 1088 881 1019Q985 950 1042.50 825Q1100 700 1100 534Q1100 369 1042.50 244Q985 119 881 49Q777 -21 639 -21Q562 -21 500.50 2.50Q439 26 391.50 67.50Q344 109 310 163H305V-418ZM613 134Q708 134 778 181.50Q848 229 887 318.50Q926 408 926 535Q926 662 887 751Q848 840 778 887Q708 934 613 934Q514 934 442 884.50Q370 835 332 745.50Q294 656 294 535Q294 415 332.50 324.50Q371 234 442.50 184Q514 134 613 134Z"/>
<path transform="translate(1206.07 519.68) scale(0.02235 -0.02235)" d="M589 1070V922H16V1070ZM200 1353H372V264Q372 199 398.50 172.50Q425 146 491 146Q513 146 539.50 147Q566 148 588 149L596 1Q570 -1 538 -2Q506 -3 478 -3Q340 -3 270 60Q200 123 200 246Z"/>
<path transform="translate(1220.46 519.68) scale(0.02235 -0.02235)" d="M577 -24Q420 -24 309 47Q198 118 138.50 243.50Q79 369 79 531Q79 695 140.50 821Q202 947 311 1019.50Q420 1092 563 1092Q668 1092 756 1054Q844 1016 908.50 944Q973 872 1008.50 769.50Q1044 667 1044 536V483H176V631H949L873 578Q873 687 835.50 768Q798 849 728.50 893.50Q659 938 563 938Q467 938 397 893Q327 848 288.50 768.50Q250 689 250 585V506Q250 394 289 309.50Q328 225 401 178Q474 131 577 131Q650 131 706.50 153.50Q763 176 800.50 217.50Q838 259 855 314L1026 304Q1005 206 942 132.50Q879 59 785.50 17.50Q692 -24 577 -24Z"/>
<path transform="translate(1245.47 519.68) scale(0.02235 -0.02235)" d="M540 -21Q403 -21 298.50 49Q194 119 136.50 244Q79 369 79 534Q79 700 137 825Q195 950 299 1019Q403 1088 541 1088Q619 1088 681.50 1065Q744 1042 791.50 1001.50Q839 961 869 909H874V1490H1046V0H878V163H872Q839 109 790.50 67.50Q742 26 680 2.50Q618 -21 540 -21ZM567 134Q666 134 737.50 184Q809 234 847 324.50Q885 415 885 535Q885 656 847 745.50Q809 835 737.50 884.50Q666 934 567 934Q472 934 401.50 887Q331 840 292.50 751Q254 662 254 535Q254 408 293 318.50Q332 229 402.50 181.50Q473 134 567 134Z"/>
<path transform="translate(1283.57 519.68) scale(0.02235 -0.02235)" d="M133 0V1070H301V846H282Q311 926 361.50 980Q412 1034 477 1062Q542 1090 614 1090Q738 1090 822 1018.50Q906 947 927 846H895Q917 915 967 970Q1017 1025 1089.50 1057.50Q1162 1090 1250 1090Q1347 1090 1427 1048Q1507 1006 1554.50 921Q1602 836 1602 706V0H1430V705Q1430 827 1361 879.50Q1292 932 1201 932Q1125 932 1069.50 900Q1014 868 984 812.50Q954 757 954 685V0H781V723Q781 817 718 874.50Q655 932 559 932Q493 932 435 901Q377 870 341 809Q305 748 305 657V0Z"/>
<path transform="translate(1322.34 519.68) scale(0.02235 -0.02235)" d="M577 -24Q420 -24 309 47Q198 118 138.50 243.50Q79 369 79 531Q79 695 140.50 821Q202 947 311 1019.50Q420 1092 563 1092Q668 1092 756 1054Q844 1016 908.50 944Q973 872 1008.50 769.50Q1044 667 1044 536V483H176V631H949L873 578Q873 687 835.50 768Q798 849 728.50 893.50Q659 938 563 938Q467 938 397 893Q327 848 288.50 768.50Q250 689 250 585V506Q250 394 289 309.50Q328 225 401 178Q474 131 577 131Q650 131 706.50 153.50Q763 176 800.50 217.50Q838 259 855 314L1026 304Q1005 206 942 132.50Q879 59 785.50 17.50Q692 -24 577 -24Z"/>
<path transform="translate(1347.35 519.68) scale(0.02235 -0.02235)" d="M504 -24Q390 -24 298.50 12Q207 48 150 121.50Q93 195 83 306L252 315Q264 222 328 173.50Q392 125 500 125Q612 125 676.50 171.50Q741 218 741 288Q741 348 698 384.50Q655 421 581 438L408 478Q260 514 184.50 589Q109 664 109 780Q109 871 159 941.50Q209 1012 297 1052Q385 1092 499 1092Q610 1092 696 1052Q782 1012 833.50 939.50Q885 867 893 767L727 758Q721 837 662 890.50Q603 944 499 944Q402 944 342 897Q282 850 282 782Q282 722 326 685Q370 648 451 629L621 589Q773 553 844.50 480.50Q916 408 916 294Q916 196 862.50 124.50Q809 53 715.50 14.50Q622 -24 504 -24Z"/>
<path transform="translate(1369.60 519.68) scale(0.02235 -0.02235)" d="M504 -24Q390 -24 298.50 12Q207 48 150 121.50Q93 195 83 306L252 315Q264 222 328 173.50Q392 125 500 125Q612 125 676.50 171.50Q741 218 741 288Q741 348 698 384.50Q655 421 581 438L408 478Q260 514 184.50 589Q109 664 109 780Q109 871 159 941.50Q209 1012 297 1052Q385 1092 499 1092Q610 1092 696 1052Q782 1012 833.50 939.50Q885 867 893 767L727 758Q721 837 662 890.50Q603 944 499 944Q402 944 342 897Q282 850 282 782Q282 722 326 685Q370 648 451 629L621 589Q773 553 844.50 480.50Q916 408 916 294Q916 196 862.50 124.50Q809 53 715.50 14.50Q622 -24 504 -24Z"/>
<path transform="translate(1391.86 519.68) scale(0.02235 -0.02235)" d="M453 -18Q348 -18 264 19Q180 56 131 128.50Q82 201 82 307Q82 399 118 457Q154 515 214.50 547.50Q275 580 351 597Q427 614 506 624Q606 638 665.50 645Q725 652 750.50 668.50Q776 685 776 725V734Q776 795 749 840Q722 885 669.50 911Q617 937 542 937Q468 937 411 912Q354 887 320.50 846Q287 805 279 756L106 768Q120 866 179 937.50Q238 1009 331.50 1048.50Q425 1088 541 1088Q625 1088 699 1066Q773 1044 828.50 999Q884 954 915.50 887Q947 820 947 730V0H777V150H771Q752 112 714 73Q676 34 612.50 8Q549 -18 453 -18ZM479 135Q582 135 648 173Q714 211 745 271.50Q776 332 776 401V538Q766 528 737 519.50Q708 511 667.50 503.50Q627 496 582.50 489Q538 482 498 477Q436 469 381 449.50Q326 430 292 394Q258 358 258 297Q258 246 285 210Q312 174 362 154.50Q412 135 479 135Z"/>
<path transform="translate(1416.00 519.68) scale(0.02235 -0.02235)" d="M578 -434Q457 -434 363 -398.50Q269 -363 208.50 -296Q148 -229 130 -135L298 -114Q315 -165 352.50 -203Q390 -241 446.50 -262Q503 -283 578 -283Q715 -283 795.50 -211.50Q876 -140 876 -4V170H871Q837 115 789.50 74.50Q742 34 680.50 11Q619 -12 540 -12Q404 -12 299.50 56.50Q195 125 137 248Q79 371 79 536Q79 701 137 825.50Q195 950 299.50 1019Q404 1088 541 1088Q619 1088 682 1065.50Q745 1043 793.50 1001Q842 959 874 902H879V1070H1047V-6Q1047 -160 982 -254Q917 -348 810 -391Q703 -434 578 -434ZM567 143Q666 143 737.50 191.50Q809 240 847.50 328.50Q886 417 886 537Q886 657 847.50 746Q809 835 737.50 884.50Q666 934 567 934Q473 934 402.50 887Q332 840 293 751.50Q254 663 254 537Q254 411 293 323Q332 235 402.50 189Q473 143 567 143Z"/>
<path transform="translate(1442.37 519.68) scale(0.02235 -0.02235)" d="M133 0V1070H305V0ZM220 1271Q171 1271 136.50 1305Q102 1339 102 1387Q102 1436 136.50 1470Q171 1504 219 1504Q269 1504 303.50 1470Q338 1436 338 1387Q338 1339 303.50 1305Q269 1271 220 1271Z"/>
<path transform="translate(1452.15 519.68) scale(0.02235 -0.02235)" d="M305 630V0H133V1070H301V810H258Q310 956 403 1022Q496 1088 621 1088Q729 1088 816.50 1041.50Q904 995 955.50 902Q1007 809 1007 668V0H835V655Q835 791 769 861Q703 931 584 931Q507 931 443.50 899Q380 867 342.50 800.50Q305 734 305 630Z"/>
<path transform="translate(1477.63 519.68) scale(0.02235 -0.02235)" d="M578 -434Q457 -434 363 -398.50Q269 -363 208.50 -296Q148 -229 130 -135L298 -114Q315 -165 352.50 -203Q390 -241 446.50 -262Q503 -283 578 -283Q715 -283 795.50 -211.50Q876 -140 876 -4V170H871Q837 115 789.50 74.50Q742 34 680.50 11Q619 -12 540 -12Q404 -12 299.50 56.50Q195 125 137 248Q79 371 79 536Q79 701 137 825.50Q195 950 299.50 1019Q404 1088 541 1088Q619 1088 682 1065.50Q745 1043 793.50 1001Q842 959 874 902H879V1070H1047V-6Q1047 -160 982 -254Q917 -348 810 -391Q703 -434 578 -434ZM567 143Q666 143 737.50 191.50Q809 240 847.50 328.50Q886 417 886 537Q886 657 847.50 746Q809 835 737.50 884.50Q666 934 567 934Q473 934 402.50 887Q332 840 293 751.50Q254 663 254 537Q254 411 293 323Q332 235 402.50 189Q473 143 567 143Z"/></g>
  <g fill="#55d671"><path transform="translate(530.00 607.88) scale(0.04860 -0.04860)" d="M308 -10Q207 -10 146 46.50Q85 103 85 202V349Q85 447 146 503.50Q207 560 308 560Q405 560 464.50 508.50Q524 457 527 368H429Q426 418 393.50 445.50Q361 473 308 473Q251 473 217.50 440.50Q184 408 184 349V202Q184 142 217.50 110Q251 78 308 78Q362 78 394 105Q426 132 429 182H527Q524 93 464.50 41.50Q405 -10 308 -10Z"/>
<path transform="translate(559.16 607.88) scale(0.04860 -0.04860)" d="M88 0V730H187V550L186 445H187Q194 499 232.50 529.50Q271 560 334 560Q416 560 465 508Q514 456 514 368V0H415V353Q415 412 385 444Q355 476 303 476Q249 476 218 442.50Q187 409 187 349V0Z"/>
<path transform="translate(588.32 607.88) scale(0.04860 -0.04860)" d="M249 -10Q164 -10 114.50 37.50Q65 85 65 162Q65 239 116.50 286Q168 333 252 333H413V375Q413 476 301 476Q251 476 220.50 457.50Q190 439 188 406H90Q95 473 151 516.50Q207 560 301 560Q402 560 457 512Q512 464 512 377V0H415V101H413Q406 50 362.50 20Q319 -10 249 -10ZM275 73Q338 73 375.50 103.50Q413 134 413 187V260H261Q218 260 191.50 234.50Q165 209 165 167Q165 124 194 98.50Q223 73 275 73Z"/>
<path transform="translate(617.48 607.88) scale(0.04860 -0.04860)" d="M355 0Q284 0 242.50 41Q201 82 201 150V460H44V550H201V705H300V550H523V460H300V151Q300 124 315.50 107Q331 90 357 90H518V0Z"/>
<path transform="translate(646.64 607.88) scale(0.04860 -0.04860)" d="M300 -10Q262 -10 238.50 13Q215 36 215 72Q215 110 238.50 134Q262 158 300 158Q338 158 361.50 134Q385 110 385 72Q385 36 361.50 13Q338 -10 300 -10Z"/>
<path transform="translate(675.80 607.88) scale(0.04860 -0.04860)" d="M300 -8Q199 -8 139.50 50Q80 108 80 212V338Q80 442 139.50 500Q199 558 300 558Q401 558 460.50 500Q520 442 520 338V212Q520 108 460.50 50Q401 -8 300 -8ZM300 79Q356 79 388.50 110.50Q421 142 421 203V347Q421 408 388.50 439.50Q356 471 300 471Q244 471 211.50 439.50Q179 408 179 347V203Q179 142 211.50 110.50Q244 79 300 79Z"/>
<path transform="translate(704.96 607.88) scale(0.04860 -0.04860)" d="M308 -10Q207 -10 146 46.50Q85 103 85 202V349Q85 447 146 503.50Q207 560 308 560Q405 560 464.50 508.50Q524 457 527 368H429Q426 418 393.50 445.50Q361 473 308 473Q251 473 217.50 440.50Q184 408 184 349V202Q184 142 217.50 110Q251 78 308 78Q362 78 394 105Q426 132 429 182H527Q524 93 464.50 41.50Q405 -10 308 -10Z"/>
<path transform="translate(734.12 607.88) scale(0.04860 -0.04860)" d="M88 0V730H187V550L186 445H187Q194 499 232.50 529.50Q271 560 334 560Q416 560 465 508Q514 456 514 368V0H415V353Q415 412 385 444Q355 476 303 476Q249 476 218 442.50Q187 409 187 349V0Z"/>
<path transform="translate(763.28 607.88) scale(0.04860 -0.04860)" d="M93 0V730H192V326H293L441 550H553L380 287L562 0H448L294 241H192V0Z"/>
<path transform="translate(792.44 607.88) scale(0.04860 -0.04860)" d="M300 -10Q262 -10 238.50 13Q215 36 215 72Q215 110 238.50 134Q262 158 300 158Q338 158 361.50 134Q385 110 385 72Q385 36 361.50 13Q338 -10 300 -10Z"/>
<path transform="translate(821.60 607.88) scale(0.04860 -0.04860)" d="M83 0V90H276V460H103V550H375V90H556V0ZM316 647Q282 647 262 664.50Q242 682 242 712Q242 743 262 761Q282 779 316 779Q350 779 370 761Q390 743 390 712Q390 682 370 664.50Q350 647 316 647Z"/>
<path transform="translate(850.76 607.88) scale(0.04860 -0.04860)" d="M300 -8Q199 -8 139.50 50Q80 108 80 212V338Q80 442 139.50 500Q199 558 300 558Q401 558 460.50 500Q520 442 520 338V212Q520 108 460.50 50Q401 -8 300 -8ZM300 79Q356 79 388.50 110.50Q421 142 421 203V347Q421 408 388.50 439.50Q356 471 300 471Q244 471 211.50 439.50Q179 408 179 347V203Q179 142 211.50 110.50Q244 79 300 79Z"/></g>
</svg>
