<svg viewBox="0 0 1200 630" xmlns="http://www.w3.org/2000/svg" role="img" aria-label="oc·vote aurora mark">
  <rect width="1200" height="630" fill="#fafafa"/>
  <g transform="translate(427 142)">
    <defs><radialGradient id="xoc·vote aurora markf0" cx="50%" cy="50%" r="50%"><stop offset="0%" stop-color="#55d671" stop-opacity="0.96"/><stop offset="52%" stop-color="#55d671" stop-opacity="0.30"/><stop offset="100%" stop-color="#55d671" stop-opacity="0"/></radialGradient><radialGradient id="xoc·vote aurora markf1" cx="50%" cy="50%" r="50%"><stop offset="0%" stop-color="#55d671" stop-opacity="0.96"/><stop offset="52%" stop-color="#55d671" stop-opacity="0.30"/><stop offset="100%" stop-color="#55d671" stop-opacity="0"/></radialGradient><radialGradient id="xoc·vote aurora markf2" cx="50%" cy="50%" r="50%"><stop offset="0%" stop-color="#55d671" stop-opacity="0.82"/><stop offset="52%" stop-color="#55d671" stop-opacity="0.26"/><stop offset="100%" stop-color="#55d671" stop-opacity="0"/></radialGradient><radialGradient id="xoc·vote aurora markf3" cx="50%" cy="50%" r="50%"><stop offset="0%" stop-color="#34c98a" stop-opacity="0.60"/><stop offset="52%" stop-color="#34c98a" stop-opacity="0.19"/><stop offset="100%" stop-color="#34c98a" stop-opacity="0"/></radialGradient><radialGradient id="xoc·vote aurora markf4" cx="50%" cy="50%" r="50%"><stop offset="0%" stop-color="#3f9fd1" stop-opacity="0.60"/><stop offset="52%" stop-color="#3f9fd1" stop-opacity="0.19"/><stop offset="100%" stop-color="#3f9fd1" stop-opacity="0"/></radialGradient><filter id="xoc·vote aurora markb" x="-30%" y="-30%" width="160%" height="160%"><feGaussianBlur stdDeviation="29.4"/></filter><clipPath id="xoc·vote aurora markc"><g transform="scale(14.416667 14.416667)"><rect x="2" y="14" width="4" height="8" fill="#ffffff"/><rect x="10" y="8" width="4" height="14" fill="#ffffff"/><rect x="18" y="2" width="4" height="20" fill="#ffffff"/></g></clipPath></defs><g clip-path="url(#xoc·vote aurora markc)"><rect width="346" height="346" fill="#ffffff"/><g opacity="0.95" filter="url(#xoc·vote aurora markb)"><circle cx="69.2" cy="55.4" r="228.4" fill="url(#xoc·vote aurora markf0)"/><circle cx="179.9" cy="190.3" r="200.7" fill="url(#xoc·vote aurora markf1)"/><circle cx="62.3" cy="304.5" r="193.8" fill="url(#xoc·vote aurora markf2)"/><circle cx="297.6" cy="51.9" r="173.0" fill="url(#xoc·vote aurora markf3)"/><circle cx="304.5" cy="290.6" r="179.9" fill="url(#xoc·vote aurora markf4)"/></g></g><g transform="scale(14.416667 14.416667)"><rect x="2" y="14" width="4" height="8" fill="none"/><rect x="10" y="8" width="4" height="14" fill="none"/><rect x="18" y="2" width="4" height="20" fill="none"/></g>
  </g>
</svg>
