<svg viewBox="0 0 1024 1024" xmlns="http://www.w3.org/2000/svg" role="img" aria-label="oc·vote aurora mark">
  <rect width="1024" height="1024" fill="#0a0a0a"/>
  <g transform="translate(204 204)">
    <defs><radialGradient id="xoc·vote aurora markf0" cx="50%" cy="50%" r="50%"><stop offset="0%" stop-color="#55d671" stop-opacity="0.96"/><stop offset="52%" stop-color="#55d671" stop-opacity="0.30"/><stop offset="100%" stop-color="#55d671" stop-opacity="0"/></radialGradient><radialGradient id="xoc·vote aurora markf1" cx="50%" cy="50%" r="50%"><stop offset="0%" stop-color="#55d671" stop-opacity="0.96"/><stop offset="52%" stop-color="#55d671" stop-opacity="0.30"/><stop offset="100%" stop-color="#55d671" stop-opacity="0"/></radialGradient><radialGradient id="xoc·vote aurora markf2" cx="50%" cy="50%" r="50%"><stop offset="0%" stop-color="#55d671" stop-opacity="0.82"/><stop offset="52%" stop-color="#55d671" stop-opacity="0.26"/><stop offset="100%" stop-color="#55d671" stop-opacity="0"/></radialGradient><radialGradient id="xoc·vote aurora markf3" cx="50%" cy="50%" r="50%"><stop offset="0%" stop-color="#34c98a" stop-opacity="0.60"/><stop offset="52%" stop-color="#34c98a" stop-opacity="0.19"/><stop offset="100%" stop-color="#34c98a" stop-opacity="0"/></radialGradient><radialGradient id="xoc·vote aurora markf4" cx="50%" cy="50%" r="50%"><stop offset="0%" stop-color="#3f9fd1" stop-opacity="0.60"/><stop offset="52%" stop-color="#3f9fd1" stop-opacity="0.19"/><stop offset="100%" stop-color="#3f9fd1" stop-opacity="0"/></radialGradient><filter id="xoc·vote aurora markb" x="-30%" y="-30%" width="160%" height="160%"><feGaussianBlur stdDeviation="52.4"/></filter><clipPath id="xoc·vote aurora markc"><g transform="scale(25.666667 25.666667)"><rect x="2" y="14" width="4" height="8" fill="#ffffff"/><rect x="10" y="8" width="4" height="14" fill="#ffffff"/><rect x="18" y="2" width="4" height="20" fill="#ffffff"/></g></clipPath></defs><g clip-path="url(#xoc·vote aurora markc)"><rect width="616" height="616" fill="#141414"/><g opacity="1.0" filter="url(#xoc·vote aurora markb)"><circle cx="123.2" cy="98.6" r="406.6" fill="url(#xoc·vote aurora markf0)"/><circle cx="320.3" cy="338.8" r="357.3" fill="url(#xoc·vote aurora markf1)"/><circle cx="110.9" cy="542.1" r="345.0" fill="url(#xoc·vote aurora markf2)"/><circle cx="529.8" cy="92.4" r="308.0" fill="url(#xoc·vote aurora markf3)"/><circle cx="542.1" cy="517.4" r="320.3" fill="url(#xoc·vote aurora markf4)"/></g></g><g transform="scale(25.666667 25.666667)"><rect x="2" y="14" width="4" height="8" fill="none"/><rect x="10" y="8" width="4" height="14" fill="none"/><rect x="18" y="2" width="4" height="20" fill="none"/></g>
  </g>
</svg>
