<svg viewBox="0 0 1024 1024" xmlns="http://www.w3.org/2000/svg" role="img" aria-label="oc·lock aurora mark">
  <rect width="1024" height="1024" fill="#0a0a0a"/>
  <g transform="translate(204 204)">
    <defs><radialGradient id="xoc·lock aurora markf0" cx="50%" cy="50%" r="50%"><stop offset="0%" stop-color="#da6736" stop-opacity="0.96"/><stop offset="52%" stop-color="#da6736" stop-opacity="0.30"/><stop offset="100%" stop-color="#da6736" stop-opacity="0"/></radialGradient><radialGradient id="xoc·lock aurora markf1" cx="50%" cy="50%" r="50%"><stop offset="0%" stop-color="#da6736" stop-opacity="0.96"/><stop offset="52%" stop-color="#da6736" stop-opacity="0.30"/><stop offset="100%" stop-color="#da6736" stop-opacity="0"/></radialGradient><radialGradient id="xoc·lock aurora markf2" cx="50%" cy="50%" r="50%"><stop offset="0%" stop-color="#da6736" stop-opacity="0.82"/><stop offset="52%" stop-color="#da6736" stop-opacity="0.26"/><stop offset="100%" stop-color="#da6736" stop-opacity="0"/></radialGradient><radialGradient id="xoc·lock aurora markf3" cx="50%" cy="50%" r="50%"><stop offset="0%" stop-color="#34c98a" stop-opacity="0.60"/><stop offset="52%" stop-color="#34c98a" stop-opacity="0.19"/><stop offset="100%" stop-color="#34c98a" stop-opacity="0"/></radialGradient><radialGradient id="xoc·lock aurora markf4" cx="50%" cy="50%" r="50%"><stop offset="0%" stop-color="#3f9fd1" stop-opacity="0.60"/><stop offset="52%" stop-color="#3f9fd1" stop-opacity="0.19"/><stop offset="100%" stop-color="#3f9fd1" stop-opacity="0"/></radialGradient><filter id="xoc·lock aurora markb" x="-30%" y="-30%" width="160%" height="160%"><feGaussianBlur stdDeviation="52.4"/></filter><clipPath id="xoc·lock aurora markc"><g transform="scale(25.666667 25.666667)"><path d="M7 11V7.5a5 5 0 0 1 10 0V11" fill="none" stroke="#ffffff" stroke-width="2" stroke-linecap="square"/><rect x="4" y="11" width="16" height="10" fill="#ffffff" stroke="#ffffff" stroke-width="0.75"/><rect x="11" y="14" width="2" height="4" fill="#ffffff"/><rect x="10.25" y="14" width="3.5" height="1.5" fill="#ffffff"/></g></clipPath></defs><g clip-path="url(#xoc·lock aurora markc)"><rect width="616" height="616" fill="#141414"/><g opacity="1.0" filter="url(#xoc·lock aurora markb)"><circle cx="123.2" cy="98.6" r="406.6" fill="url(#xoc·lock aurora markf0)"/><circle cx="320.3" cy="338.8" r="357.3" fill="url(#xoc·lock aurora markf1)"/><circle cx="110.9" cy="542.1" r="345.0" fill="url(#xoc·lock aurora markf2)"/><circle cx="529.8" cy="92.4" r="308.0" fill="url(#xoc·lock aurora markf3)"/><circle cx="542.1" cy="517.4" r="320.3" fill="url(#xoc·lock aurora markf4)"/></g></g><g transform="scale(25.666667 25.666667)"><path d="M7 11V7.5a5 5 0 0 1 10 0V11" fill="none" stroke="#0a0a0a" stroke-width="2" stroke-linecap="square"/><rect x="4" y="11" width="16" height="10" fill="none" stroke="#0a0a0a" stroke-width="0.75"/><rect x="11" y="14" width="2" height="4" fill="#0a0a0a"/><rect x="10.25" y="14" width="3.5" height="1.5" fill="#0a0a0a"/></g>
  </g>
</svg>
