<svg xmlns="http://www.w3.org/2000/svg" width="1500" height="500" viewBox="0 0 1500 500" role="img" aria-label="orangecheck — x-header banner (phosphor/light)">
  <rect width="1500" height="500" fill="#fafafa"/>
  <filter id="aublur" x="-20%" y="-20%" width="140%" height="140%"><feGaussianBlur stdDeviation="60.0"/></filter>
  <mask id="aumask"><rect width="1500" height="500" fill="url(#aufade)"/></mask>
  <defs><radialGradient id="au0" cx="50%" cy="50%" r="50%"><stop offset="0%" stop-color="#55d671" stop-opacity="0.95"/><stop offset="62%" stop-color="#55d671" stop-opacity="0.18"/><stop offset="100%" stop-color="#55d671" stop-opacity="0"/></radialGradient><radialGradient id="au1" cx="50%" cy="50%" r="50%"><stop offset="0%" stop-color="#34c98a" stop-opacity="0.95"/><stop offset="62%" stop-color="#34c98a" stop-opacity="0.18"/><stop offset="100%" stop-color="#34c98a" stop-opacity="0"/></radialGradient><radialGradient id="au2" cx="50%" cy="50%" r="50%"><stop offset="0%" stop-color="#3f9fd1" stop-opacity="0.95"/><stop offset="62%" stop-color="#3f9fd1" stop-opacity="0.18"/><stop offset="100%" stop-color="#3f9fd1" stop-opacity="0"/></radialGradient><radialGradient id="au3" cx="50%" cy="50%" r="50%"><stop offset="0%" stop-color="#55d671" stop-opacity="0.95"/><stop offset="62%" stop-color="#55d671" stop-opacity="0.18"/><stop offset="100%" stop-color="#55d671" stop-opacity="0"/></radialGradient><radialGradient id="au4" cx="50%" cy="50%" r="50%"><stop offset="0%" stop-color="#55d671" stop-opacity="0.95"/><stop offset="62%" stop-color="#55d671" stop-opacity="0.18"/><stop offset="100%" stop-color="#55d671" stop-opacity="0"/></radialGradient><radialGradient id="aufade" cx="50%" cy="38%" r="78%"><stop offset="55%" stop-color="#fff" stop-opacity="1"/><stop offset="100%" stop-color="#fff" stop-opacity="0"/></radialGradient></defs><g opacity="0.4" filter="url(#aublur)" mask="url(#aumask)"><ellipse cx="-75.0" cy="-50.0" rx="690.0" ry="475.0" fill="url(#au0)"/><ellipse cx="510.0" cy="-25.0" rx="630.0" ry="450.0" fill="url(#au1)"/><ellipse cx="1470.0" cy="-40.0" rx="690.0" ry="475.0" fill="url(#au2)"/><ellipse cx="930.0" cy="475.0" rx="600.0" ry="425.0" fill="url(#au3)"/><ellipse cx="180.0" cy="510.0" rx="630.0" ry="425.0" fill="url(#au4)"/></g>
  <g transform="translate(90.0 145.0) scale(0.2051)" fill="#0a0a0a"><path d="M518 856Q463 820 438.5 785.5Q414 751 414 711Q414 657 462.5 613.0Q511 569 711 473Q766 509 790.5 543.5Q815 578 815 621Q815 702 550 840ZM930 1460V1235Q845 1265 779.0 1279.5Q713 1294 659 1294Q583 1294 540.5 1265.0Q498 1236 498 1184Q498 1109 701 1004Q720 994 729 989Q943 879 1002.0 808.5Q1061 738 1061 637Q1061 548 1013.5 484.0Q966 420 864 373Q934 323 966.5 261.5Q999 200 999 119Q999 -28 894.5 -111.5Q790 -195 604 -195Q515 -195 429.0 -180.5Q343 -166 258 -137V92Q343 62 424.0 46.5Q505 31 578 31Q655 31 696.0 59.5Q737 88 737 141Q737 211 523 326L512 332L486 346Q170 516 170 688Q170 782 222.0 851.5Q274 921 371 954Q300 1004 268.0 1064.0Q236 1124 236 1206Q236 1348 340.0 1434.0Q444 1520 616 1520Q690 1520 768.5 1505.0Q847 1490 930 1460Z" fill="#55d671" transform="translate(225.3457 820.5434) scale(0.465726 -0.465726)"/></g>
  <g fill="#0a0a0a"><path transform="translate(352.50 233.50) scale(0.03662 -0.03662)" d="M592 -24Q436 -24 317.50 46Q199 116 133.50 241.50Q68 367 68 533Q68 699 133.50 825Q199 951 317.50 1021.50Q436 1092 592 1092Q750 1092 867.50 1021.50Q985 951 1050.50 825Q1116 699 1116 533Q1116 367 1050.50 241.50Q985 116 867.50 46Q750 -24 592 -24ZM592 187Q676 187 735.50 230Q795 273 827 351Q859 429 859 533Q859 638 827 716Q795 794 735.50 837.50Q676 881 592 881Q510 881 450 837.50Q390 794 358 716Q326 638 326 533Q326 428 358 350.50Q390 273 449.50 230Q509 187 592 187Z"/>
<path transform="translate(395.90 233.50) scale(0.03662 -0.03662)" d="M117 0V1070H363V892H368Q397 984 462 1032.50Q527 1081 629 1081Q653 1081 675.50 1079.50Q698 1078 713 1076V849Q699 852 664.50 855Q630 858 594 858Q531 858 480.50 830Q430 802 401 747Q372 692 372 611V0Z"/>
<path transform="translate(423.29 233.50) scale(0.03662 -0.03662)" d="M438 -18Q332 -18 249.50 18Q167 54 119 125.50Q71 197 71 303Q71 394 105 453.50Q139 513 197.50 548.50Q256 584 331.50 602.50Q407 621 488 629Q586 640 644 648.50Q702 657 728 674Q754 691 754 727V734Q754 782 731 817.50Q708 853 665 873Q622 893 560 893Q498 893 451.50 873Q405 853 377 819Q349 785 343 742L101 753Q113 857 172.50 932Q232 1007 332 1048.50Q432 1090 564 1090Q662 1090 743 1066.50Q824 1043 883 997Q942 951 974 883Q1006 815 1006 726V0H758V150H752Q728 103 687 64.50Q646 26 585 4Q524 -18 438 -18ZM501 170Q583 170 639.50 200.50Q696 231 725.50 281.50Q755 332 755 393V512Q743 503 718.50 496Q694 489 661 482.50Q628 476 591.50 470Q555 464 519 459Q464 451 418.50 433.50Q373 416 345.50 385Q318 354 318 305Q318 263 341 232.50Q364 202 405 186Q446 170 501 170Z"/>
<path transform="translate(464.41 233.50) scale(0.03662 -0.03662)" d="M372 610V0H117V1070H365L366 799H323Q373 941 465.50 1015.50Q558 1090 695 1090Q807 1090 892 1041.50Q977 993 1025 900Q1073 807 1073 671V0H819V631Q819 747 762.50 807.50Q706 868 604 868Q538 868 485 840.50Q432 813 402 755.50Q372 698 372 610Z"/>
<path transform="translate(507.99 233.50) scale(0.03662 -0.03662)" d="M597 -434Q459 -434 358 -395Q257 -356 196.50 -284.50Q136 -213 118 -117L360 -99Q373 -141 405 -172.50Q437 -204 485 -221.50Q533 -239 597 -239Q716 -239 783 -176.50Q850 -114 850 6V179H845Q814 122 768.50 81.50Q723 41 662.50 19.50Q602 -2 526 -2Q391 -2 287.50 65Q184 132 126 254Q68 376 68 539Q68 705 126.50 829Q185 953 288.50 1021.50Q392 1090 526 1090Q601 1090 662 1067.50Q723 1045 769.50 1004Q816 963 847 907H851V1070H1102V21Q1102 -140 1036.50 -240Q971 -340 856.50 -387Q742 -434 597 -434ZM589 206Q672 206 732.50 247Q793 288 826 364Q859 440 859 542Q859 645 826.50 721Q794 797 733 839Q672 881 589 881Q509 881 450 840.50Q391 800 358.50 724.50Q326 649 326 542Q326 436 358.50 360.50Q391 285 450 245.50Q509 206 589 206Z"/>
<path transform="translate(552.67 233.50) scale(0.03662 -0.03662)" d="M590 -24Q430 -24 312.50 47Q195 118 131.50 243.50Q68 369 68 532Q68 696 133 822Q198 948 313 1020Q428 1092 578 1092Q690 1092 782.50 1053.50Q875 1015 943 942.50Q1011 870 1048.50 768Q1086 666 1086 539V468H174V642H958L844 594Q844 685 812.50 751.50Q781 818 722 854.50Q663 891 581 891Q500 891 441 854Q382 817 350 751.50Q318 686 318 598V486Q318 392 351 322Q384 252 446 214Q508 176 595 176Q657 176 705.50 194.50Q754 213 787 247Q820 281 835 326L1072 315Q1050 215 983 138.50Q916 62 815 19Q714 -24 590 -24Z"/>
<path transform="translate(594.79 233.50) scale(0.03662 -0.03662)" d="M589 -24Q433 -24 315.50 46.50Q198 117 133 242.50Q68 368 68 533Q68 698 133 824Q198 950 315.50 1021Q433 1092 589 1092Q687 1092 770 1063.50Q853 1035 916.50 983Q980 931 1019 859.50Q1058 788 1069 701L822 690Q815 733 796 768Q777 803 747.50 828Q718 853 679 867Q640 881 592 881Q507 881 447.50 837.50Q388 794 357 716Q326 638 326 533Q326 429 357 351Q388 273 447.50 230Q507 187 592 187Q641 187 679.50 200.50Q718 214 746.50 239.50Q775 265 793.50 301Q812 337 821 381L1069 370Q1060 283 1021 211.50Q982 140 918.50 87Q855 34 771 5Q687 -24 589 -24Z"/>
<path transform="translate(636.28 233.50) scale(0.03662 -0.03662)" d="M372 610V0H117V1490H371V799H323Q373 941 465.50 1015.50Q558 1090 695 1090Q807 1090 892 1041.50Q977 993 1025 900Q1073 807 1073 671V0H819V631Q819 747 762.50 807.50Q706 868 604 868Q538 868 485 840.50Q432 813 402 755.50Q372 698 372 610Z"/>
<path transform="translate(679.89 233.50) scale(0.03662 -0.03662)" d="M590 -24Q430 -24 312.50 47Q195 118 131.50 243.50Q68 369 68 532Q68 696 133 822Q198 948 313 1020Q428 1092 578 1092Q690 1092 782.50 1053.50Q875 1015 943 942.50Q1011 870 1048.50 768Q1086 666 1086 539V468H174V642H958L844 594Q844 685 812.50 751.50Q781 818 722 854.50Q663 891 581 891Q500 891 441 854Q382 817 350 751.50Q318 686 318 598V486Q318 392 351 322Q384 252 446 214Q508 176 595 176Q657 176 705.50 194.50Q754 213 787 247Q820 281 835 326L1072 315Q1050 215 983 138.50Q916 62 815 19Q714 -24 590 -24Z"/>
<path transform="translate(722.01 233.50) scale(0.03662 -0.03662)" d="M589 -24Q433 -24 315.50 46.50Q198 117 133 242.50Q68 368 68 533Q68 698 133 824Q198 950 315.50 1021Q433 1092 589 1092Q687 1092 770 1063.50Q853 1035 916.50 983Q980 931 1019 859.50Q1058 788 1069 701L822 690Q815 733 796 768Q777 803 747.50 828Q718 853 679 867Q640 881 592 881Q507 881 447.50 837.50Q388 794 357 716Q326 638 326 533Q326 429 357 351Q388 273 447.50 230Q507 187 592 187Q641 187 679.50 200.50Q718 214 746.50 239.50Q775 265 793.50 301Q812 337 821 381L1069 370Q1060 283 1021 211.50Q982 140 918.50 87Q855 34 771 5Q687 -24 589 -24Z"/>
<path transform="translate(763.50 233.50) scale(0.03662 -0.03662)" d="M350 335V637H378L787 1070H1091L600 542H549ZM117 0V1490H372V0ZM813 0 447 486 618 664 1117 0Z"/></g>
  <g fill="#525252"><path transform="translate(352.50 292.50) scale(0.01611 -0.01611)" d="M133 -418V1070H301V909H307Q338 961 386 1001.50Q434 1042 498 1065Q562 1088 639 1088Q777 1088 881 1019Q985 950 1042.50 825Q1100 700 1100 534Q1100 369 1042.50 244Q985 119 881 49Q777 -21 639 -21Q562 -21 500.50 2.50Q439 26 391.50 67.50Q344 109 310 163H305V-418ZM613 134Q708 134 778 181.50Q848 229 887 318.50Q926 408 926 535Q926 662 887 751Q848 840 778 887Q708 934 613 934Q514 934 442 884.50Q370 835 332 745.50Q294 656 294 535Q294 415 332.50 324.50Q371 234 442.50 184Q514 134 613 134Z"/>
<path transform="translate(371.50 292.50) scale(0.01611 -0.01611)" d="M133 0V1070H298V902H304Q333 985 399.50 1035.50Q466 1086 566 1086Q588 1086 609 1084Q630 1082 642 1080V908Q632 911 603 915.50Q574 920 537 920Q474 920 421 891.50Q368 863 336.50 805.50Q305 748 305 661V0Z"/>
<path transform="translate(382.54 292.50) scale(0.01611 -0.01611)" d="M573 -24Q426 -24 314.50 47Q203 118 141 243Q79 368 79 532Q79 697 141 823Q203 949 314.50 1020.50Q426 1092 573 1092Q722 1092 833 1020.50Q944 949 1006 823Q1068 697 1068 532Q1068 368 1006 243Q944 118 833 47Q722 -24 573 -24ZM573 132Q676 132 747.50 183Q819 234 856.50 324.50Q894 415 894 532Q894 651 856.50 741.50Q819 832 747.50 884Q676 936 573 936Q471 936 399.50 884.50Q328 833 291 742Q254 651 254 532Q254 414 291 324Q328 234 399.50 183Q471 132 573 132Z"/>
<path transform="translate(401.02 292.50) scale(0.01611 -0.01611)" d="M573 -24Q426 -24 314.50 47Q203 118 141 243Q79 368 79 532Q79 697 141 823Q203 949 314.50 1020.50Q426 1092 573 1092Q722 1092 833 1020.50Q944 949 1006 823Q1068 697 1068 532Q1068 368 1006 243Q944 118 833 47Q722 -24 573 -24ZM573 132Q676 132 747.50 183Q819 234 856.50 324.50Q894 415 894 532Q894 651 856.50 741.50Q819 832 747.50 884Q676 936 573 936Q471 936 399.50 884.50Q328 833 291 742Q254 651 254 532Q254 414 291 324Q328 234 399.50 183Q471 132 573 132Z"/>
<path transform="translate(419.50 292.50) scale(0.01611 -0.01611)" d="M607 1070V922H16V1070ZM211 0V1249Q211 1330 247.50 1387Q284 1444 349 1475Q414 1506 498 1506Q540 1506 573 1503.50Q606 1501 618 1499L607 1351Q597 1352 567.50 1353.50Q538 1355 515 1355Q445 1355 414 1323Q383 1291 383 1220V0Z"/>
<path transform="translate(438.54 292.50) scale(0.01611 -0.01611)" d="M573 -24Q426 -24 314.50 47Q203 118 141 243Q79 368 79 532Q79 697 141 823Q203 949 314.50 1020.50Q426 1092 573 1092Q722 1092 833 1020.50Q944 949 1006 823Q1068 697 1068 532Q1068 368 1006 243Q944 118 833 47Q722 -24 573 -24ZM573 132Q676 132 747.50 183Q819 234 856.50 324.50Q894 415 894 532Q894 651 856.50 741.50Q819 832 747.50 884Q676 936 573 936Q471 936 399.50 884.50Q328 833 291 742Q254 651 254 532Q254 414 291 324Q328 234 399.50 183Q471 132 573 132Z"/>
<path transform="translate(457.03 292.50) scale(0.01611 -0.01611)" d="M607 1070V922H16V1070ZM211 0V1249Q211 1330 247.50 1387Q284 1444 349 1475Q414 1506 498 1506Q540 1506 573 1503.50Q606 1501 618 1499L607 1351Q597 1352 567.50 1353.50Q538 1355 515 1355Q445 1355 414 1323Q383 1291 383 1220V0Z"/>
<path transform="translate(476.07 292.50) scale(0.01611 -0.01611)" d="M519 -19Q412 -19 324 27.50Q236 74 184.50 168Q133 262 133 402V1070H305V414Q305 279 371.50 209Q438 139 556 139Q634 139 697 170.50Q760 202 797.50 269.50Q835 337 835 440V1070H1007V0H839V259H882Q830 114 737 47.50Q644 -19 519 -19Z"/>
<path transform="translate(494.44 292.50) scale(0.01611 -0.01611)" d="M305 630V0H133V1070H301V810H258Q310 956 403 1022Q496 1088 621 1088Q729 1088 816.50 1041.50Q904 995 955.50 902Q1007 809 1007 668V0H835V655Q835 791 769 861Q703 931 584 931Q507 931 443.50 899Q380 867 342.50 800.50Q305 734 305 630Z"/>
<path transform="translate(512.81 292.50) scale(0.01611 -0.01611)" d="M133 0V1070H305V0ZM220 1271Q171 1271 136.50 1305Q102 1339 102 1387Q102 1436 136.50 1470Q171 1504 219 1504Q269 1504 303.50 1470Q338 1436 338 1387Q338 1339 303.50 1305Q269 1271 220 1271Z"/>
<path transform="translate(519.87 292.50) scale(0.01611 -0.01611)" d="M1046 -418H874V163H869Q836 109 788.50 67.50Q741 26 679.50 2.50Q618 -21 540 -21Q403 -21 298.50 49Q194 119 136.50 244Q79 369 79 534Q79 700 137 825Q195 950 299 1019Q403 1088 541 1088Q619 1088 682.50 1065Q746 1042 794 1001.50Q842 961 872 909H878V1070H1046ZM567 134Q666 134 737.50 184Q809 234 847 324.50Q885 415 885 535Q885 656 847 745.50Q809 835 737.50 884.50Q666 934 567 934Q472 934 401.50 887Q331 840 292.50 751Q254 662 254 535Q254 408 293 318.50Q332 229 402.50 181.50Q473 134 567 134Z"/>
<path transform="translate(538.87 292.50) scale(0.01611 -0.01611)" d="M519 -19Q412 -19 324 27.50Q236 74 184.50 168Q133 262 133 402V1070H305V414Q305 279 371.50 209Q438 139 556 139Q634 139 697 170.50Q760 202 797.50 269.50Q835 337 835 440V1070H1007V0H839V259H882Q830 114 737 47.50Q644 -19 519 -19Z"/>
<path transform="translate(557.24 292.50) scale(0.01611 -0.01611)" d="M577 -24Q420 -24 309 47Q198 118 138.50 243.50Q79 369 79 531Q79 695 140.50 821Q202 947 311 1019.50Q420 1092 563 1092Q668 1092 756 1054Q844 1016 908.50 944Q973 872 1008.50 769.50Q1044 667 1044 536V483H176V631H949L873 578Q873 687 835.50 768Q798 849 728.50 893.50Q659 938 563 938Q467 938 397 893Q327 848 288.50 768.50Q250 689 250 585V506Q250 394 289 309.50Q328 225 401 178Q474 131 577 131Q650 131 706.50 153.50Q763 176 800.50 217.50Q838 259 855 314L1026 304Q1005 206 942 132.50Q879 59 785.50 17.50Q692 -24 577 -24Z"/>
<path transform="translate(583.74 292.50) scale(0.01611 -0.01611)" d="M305 630V0H133V1490H305V810H258Q310 956 403 1022Q496 1088 621 1088Q729 1088 816.50 1041.50Q904 995 955.50 902Q1007 809 1007 668V0H835V655Q835 791 769 861Q703 931 584 931Q507 931 443.50 899Q380 867 342.50 800.50Q305 734 305 630Z"/>
<path transform="translate(602.11 292.50) scale(0.01611 -0.01611)" d="M519 -19Q412 -19 324 27.50Q236 74 184.50 168Q133 262 133 402V1070H305V414Q305 279 371.50 209Q438 139 556 139Q634 139 697 170.50Q760 202 797.50 269.50Q835 337 835 440V1070H1007V0H839V259H882Q830 114 737 47.50Q644 -19 519 -19Z"/>
<path transform="translate(620.48 292.50) scale(0.01611 -0.01611)" d="M133 0V1070H301V846H282Q311 926 361.50 980Q412 1034 477 1062Q542 1090 614 1090Q738 1090 822 1018.50Q906 947 927 846H895Q917 915 967 970Q1017 1025 1089.50 1057.50Q1162 1090 1250 1090Q1347 1090 1427 1048Q1507 1006 1554.50 921Q1602 836 1602 706V0H1430V705Q1430 827 1361 879.50Q1292 932 1201 932Q1125 932 1069.50 900Q1014 868 984 812.50Q954 757 954 685V0H781V723Q781 817 718 874.50Q655 932 559 932Q493 932 435 901Q377 870 341 809Q305 748 305 657V0Z"/>
<path transform="translate(648.44 292.50) scale(0.01611 -0.01611)" d="M453 -18Q348 -18 264 19Q180 56 131 128.50Q82 201 82 307Q82 399 118 457Q154 515 214.50 547.50Q275 580 351 597Q427 614 506 624Q606 638 665.50 645Q725 652 750.50 668.50Q776 685 776 725V734Q776 795 749 840Q722 885 669.50 911Q617 937 542 937Q468 937 411 912Q354 887 320.50 846Q287 805 279 756L106 768Q120 866 179 937.50Q238 1009 331.50 1048.50Q425 1088 541 1088Q625 1088 699 1066Q773 1044 828.50 999Q884 954 915.50 887Q947 820 947 730V0H777V150H771Q752 112 714 73Q676 34 612.50 8Q549 -18 453 -18ZM479 135Q582 135 648 173Q714 211 745 271.50Q776 332 776 401V538Q766 528 737 519.50Q708 511 667.50 503.50Q627 496 582.50 489Q538 482 498 477Q436 469 381 449.50Q326 430 292 394Q258 358 258 297Q258 246 285 210Q312 174 362 154.50Q412 135 479 135Z"/>
<path transform="translate(665.84 292.50) scale(0.01611 -0.01611)" d="M305 630V0H133V1070H301V810H258Q310 956 403 1022Q496 1088 621 1088Q729 1088 816.50 1041.50Q904 995 955.50 902Q1007 809 1007 668V0H835V655Q835 791 769 861Q703 931 584 931Q507 931 443.50 899Q380 867 342.50 800.50Q305 734 305 630Z"/>
<path transform="translate(684.21 292.50) scale(0.01611 -0.01611)" d="M133 0V1070H305V0ZM220 1271Q171 1271 136.50 1305Q102 1339 102 1387Q102 1436 136.50 1470Q171 1504 219 1504Q269 1504 303.50 1470Q338 1436 338 1387Q338 1339 303.50 1305Q269 1271 220 1271Z"/>
<path transform="translate(691.27 292.50) scale(0.01611 -0.01611)" d="M589 1070V922H16V1070ZM200 1353H372V264Q372 199 398.50 172.50Q425 146 491 146Q513 146 539.50 147Q566 148 588 149L596 1Q570 -1 538 -2Q506 -3 478 -3Q340 -3 270 60Q200 123 200 246Z"/>
<path transform="translate(701.64 292.50) scale(0.01611 -0.01611)" d="M135 -415 146 -264 231 -265Q269 -268 298.50 -256Q328 -244 352.50 -214Q377 -184 396 -132L448 6L35 1070H222L452 450Q483 367 510 285.50Q537 204 563 123H513Q539 204 566.50 286Q594 368 624 450L851 1070H1036L548 -190Q518 -265 474 -316Q430 -367 372.50 -393.50Q315 -420 246 -420Q215 -420 187 -418.50Q159 -417 135 -415Z"/>
<path transform="translate(718.90 292.50) scale(0.01611 -0.01611)" d="M72 -298 160 208H347L199 -298Z"/>
<path transform="translate(735.13 292.50) scale(0.01611 -0.01611)" d="M573 -24Q426 -24 314.50 47Q203 118 141 243Q79 368 79 532Q79 697 141 823Q203 949 314.50 1020.50Q426 1092 573 1092Q722 1092 833 1020.50Q944 949 1006 823Q1068 697 1068 532Q1068 368 1006 243Q944 118 833 47Q722 -24 573 -24ZM573 132Q676 132 747.50 183Q819 234 856.50 324.50Q894 415 894 532Q894 651 856.50 741.50Q819 832 747.50 884Q676 936 573 936Q471 936 399.50 884.50Q328 833 291 742Q254 651 254 532Q254 414 291 324Q328 234 399.50 183Q471 132 573 132Z"/>
<path transform="translate(753.61 292.50) scale(0.01611 -0.01611)" d="M305 630V0H133V1070H301V810H258Q310 956 403 1022Q496 1088 621 1088Q729 1088 816.50 1041.50Q904 995 955.50 902Q1007 809 1007 668V0H835V655Q835 791 769 861Q703 931 584 931Q507 931 443.50 899Q380 867 342.50 800.50Q305 734 305 630Z"/>
<path transform="translate(780.45 292.50) scale(0.01611 -0.01611)" d="M639 -21Q562 -21 499.50 2.50Q437 26 389 67.50Q341 109 307 163H301V0H133V1490H305V909H310Q341 961 388 1001.50Q435 1042 498.50 1065Q562 1088 639 1088Q777 1088 881 1019Q985 950 1042.50 825Q1100 700 1100 534Q1100 369 1042.50 244Q985 119 881 49Q777 -21 639 -21ZM613 134Q708 134 778 181.50Q848 229 887 318.50Q926 408 926 535Q926 662 887 751Q848 840 778 887Q708 934 613 934Q514 934 442 884.50Q370 835 332 745.50Q294 656 294 535Q294 415 332.50 324.50Q371 234 442.50 184Q514 134 613 134Z"/>
<path transform="translate(799.45 292.50) scale(0.01611 -0.01611)" d="M133 0V1070H305V0ZM220 1271Q171 1271 136.50 1305Q102 1339 102 1387Q102 1436 136.50 1470Q171 1504 219 1504Q269 1504 303.50 1470Q338 1436 338 1387Q338 1339 303.50 1305Q269 1271 220 1271Z"/>
<path transform="translate(806.51 292.50) scale(0.01611 -0.01611)" d="M589 1070V922H16V1070ZM200 1353H372V264Q372 199 398.50 172.50Q425 146 491 146Q513 146 539.50 147Q566 148 588 149L596 1Q570 -1 538 -2Q506 -3 478 -3Q340 -3 270 60Q200 123 200 246Z"/>
<path transform="translate(816.88 292.50) scale(0.01611 -0.01611)" d="M573 -24Q426 -24 314.50 47Q203 118 141 243Q79 368 79 532Q79 697 141 823Q203 949 314.50 1020.50Q426 1092 573 1092Q661 1092 736.50 1065.50Q812 1039 871 992Q930 945 968 880Q1006 815 1020 737L848 726Q838 772 815.50 810.50Q793 849 758 877Q723 905 677 920.50Q631 936 573 936Q471 936 399.50 884.50Q328 833 291 742Q254 651 254 532Q254 414 291 324Q328 234 399.50 183Q471 132 573 132Q632 132 677.50 147Q723 162 756 190Q789 218 812 257Q835 296 847 344L1021 333Q1008 256 969.50 190.50Q931 125 871.50 77Q812 29 736.50 2.50Q661 -24 573 -24Z"/>
<path transform="translate(834.50 292.50) scale(0.01611 -0.01611)" d="M573 -24Q426 -24 314.50 47Q203 118 141 243Q79 368 79 532Q79 697 141 823Q203 949 314.50 1020.50Q426 1092 573 1092Q722 1092 833 1020.50Q944 949 1006 823Q1068 697 1068 532Q1068 368 1006 243Q944 118 833 47Q722 -24 573 -24ZM573 132Q676 132 747.50 183Q819 234 856.50 324.50Q894 415 894 532Q894 651 856.50 741.50Q819 832 747.50 884Q676 936 573 936Q471 936 399.50 884.50Q328 833 291 742Q254 651 254 532Q254 414 291 324Q328 234 399.50 183Q471 132 573 132Z"/>
<path transform="translate(852.98 292.50) scale(0.01611 -0.01611)" d="M133 0V1070H305V0ZM220 1271Q171 1271 136.50 1305Q102 1339 102 1387Q102 1436 136.50 1470Q171 1504 219 1504Q269 1504 303.50 1470Q338 1436 338 1387Q338 1339 303.50 1305Q269 1271 220 1271Z"/>
<path transform="translate(860.04 292.50) scale(0.01611 -0.01611)" d="M305 630V0H133V1070H301V810H258Q310 956 403 1022Q496 1088 621 1088Q729 1088 816.50 1041.50Q904 995 955.50 902Q1007 809 1007 668V0H835V655Q835 791 769 861Q703 931 584 931Q507 931 443.50 899Q380 867 342.50 800.50Q305 734 305 630Z"/></g>
  <g fill="#55d671"><path transform="translate(352.50 341.50) scale(0.02700 -0.02700)" d="M300 -8Q199 -8 139.50 50Q80 108 80 212V338Q80 442 139.50 500Q199 558 300 558Q401 558 460.50 500Q520 442 520 338V212Q520 108 460.50 50Q401 -8 300 -8ZM300 79Q356 79 388.50 110.50Q421 142 421 203V347Q421 408 388.50 439.50Q356 471 300 471Q244 471 211.50 439.50Q179 408 179 347V203Q179 142 211.50 110.50Q244 79 300 79Z"/>
<path transform="translate(368.70 341.50) scale(0.02700 -0.02700)" d="M308 -10Q207 -10 146 46.50Q85 103 85 202V349Q85 447 146 503.50Q207 560 308 560Q405 560 464.50 508.50Q524 457 527 368H429Q426 418 393.50 445.50Q361 473 308 473Q251 473 217.50 440.50Q184 408 184 349V202Q184 142 217.50 110Q251 78 308 78Q362 78 394 105Q426 132 429 182H527Q524 93 464.50 41.50Q405 -10 308 -10Z"/>
<path transform="translate(384.90 341.50) scale(0.02700 -0.02700)" d="M88 0V730H187V550L186 445H187Q194 499 232.50 529.50Q271 560 334 560Q416 560 465 508Q514 456 514 368V0H415V353Q415 412 385 444Q355 476 303 476Q249 476 218 442.50Q187 409 187 349V0Z"/>
<path transform="translate(401.10 341.50) scale(0.02700 -0.02700)" d="M93 0V730H192V326H293L441 550H553L380 287L562 0H448L294 241H192V0Z"/>
<path transform="translate(417.30 341.50) scale(0.02700 -0.02700)" d="M300 -10Q262 -10 238.50 13Q215 36 215 72Q215 110 238.50 134Q262 158 300 158Q338 158 361.50 134Q385 110 385 72Q385 36 361.50 13Q338 -10 300 -10Z"/>
<path transform="translate(433.50 341.50) scale(0.02700 -0.02700)" d="M83 0V90H276V460H103V550H375V90H556V0ZM316 647Q282 647 262 664.50Q242 682 242 712Q242 743 262 761Q282 779 316 779Q350 779 370 761Q390 743 390 712Q390 682 370 664.50Q350 647 316 647Z"/>
<path transform="translate(449.70 341.50) scale(0.02700 -0.02700)" d="M300 -8Q199 -8 139.50 50Q80 108 80 212V338Q80 442 139.50 500Q199 558 300 558Q401 558 460.50 500Q520 442 520 338V212Q520 108 460.50 50Q401 -8 300 -8ZM300 79Q356 79 388.50 110.50Q421 142 421 203V347Q421 408 388.50 439.50Q356 471 300 471Q244 471 211.50 439.50Q179 408 179 347V203Q179 142 211.50 110.50Q244 79 300 79Z"/></g>
</svg>
