<svg viewBox="0 0 1024 1024" xmlns="http://www.w3.org/2000/svg" role="img" aria-label="oc·chat aurora mark">
  <circle cx="512" cy="512" r="512" fill="#fafafa"/>
  <defs><radialGradient id="xoc·chat aurora markf0" cx="50%" cy="50%" r="50%"><stop offset="0%" stop-color="#55d671" stop-opacity="0.96"/><stop offset="52%" stop-color="#55d671" stop-opacity="0.30"/><stop offset="100%" stop-color="#55d671" stop-opacity="0"/></radialGradient><radialGradient id="xoc·chat aurora markf1" cx="50%" cy="50%" r="50%"><stop offset="0%" stop-color="#55d671" stop-opacity="0.96"/><stop offset="52%" stop-color="#55d671" stop-opacity="0.30"/><stop offset="100%" stop-color="#55d671" stop-opacity="0"/></radialGradient><radialGradient id="xoc·chat aurora markf2" cx="50%" cy="50%" r="50%"><stop offset="0%" stop-color="#55d671" stop-opacity="0.82"/><stop offset="52%" stop-color="#55d671" stop-opacity="0.26"/><stop offset="100%" stop-color="#55d671" stop-opacity="0"/></radialGradient><radialGradient id="xoc·chat aurora markf3" cx="50%" cy="50%" r="50%"><stop offset="0%" stop-color="#34c98a" stop-opacity="0.60"/><stop offset="52%" stop-color="#34c98a" stop-opacity="0.19"/><stop offset="100%" stop-color="#34c98a" stop-opacity="0"/></radialGradient><radialGradient id="xoc·chat aurora markf4" cx="50%" cy="50%" r="50%"><stop offset="0%" stop-color="#3f9fd1" stop-opacity="0.60"/><stop offset="52%" stop-color="#3f9fd1" stop-opacity="0.19"/><stop offset="100%" stop-color="#3f9fd1" stop-opacity="0"/></radialGradient><filter id="xoc·chat aurora markb" x="-30%" y="-30%" width="160%" height="160%"><feGaussianBlur stdDeviation="87.0"/></filter><clipPath id="xoc·chat aurora markc"><g transform="scale(42.666667 42.666667)"><path d="M5 4 H19 A2 2 0 0 1 21 6 V13 A2 2 0 0 1 19 15 H11 L7 19 V15 H5 A2 2 0 0 1 3 13 V6 A2 2 0 0 1 5 4 Z" fill="#ffffff" stroke="#ffffff" stroke-width="1.6" stroke-linejoin="round"/><circle cx="8" cy="9.5" r="1.15" fill="#ffffff"/><circle cx="12" cy="9.5" r="1.15" fill="#ffffff"/><circle cx="16" cy="9.5" r="1.15" fill="#ffffff"/></g></clipPath></defs><g clip-path="url(#xoc·chat aurora markc)"><rect width="1024" height="1024" fill="#ffffff"/><g opacity="0.95" filter="url(#xoc·chat aurora markb)"><circle cx="204.8" cy="163.8" r="675.8" fill="url(#xoc·chat aurora markf0)"/><circle cx="532.5" cy="563.2" r="593.9" fill="url(#xoc·chat aurora markf1)"/><circle cx="184.3" cy="901.1" r="573.4" fill="url(#xoc·chat aurora markf2)"/><circle cx="880.6" cy="153.6" r="512.0" fill="url(#xoc·chat aurora markf3)"/><circle cx="901.1" cy="860.2" r="532.5" fill="url(#xoc·chat aurora markf4)"/></g></g><g transform="scale(42.666667 42.666667)"><path d="M5 4 H19 A2 2 0 0 1 21 6 V13 A2 2 0 0 1 19 15 H11 L7 19 V15 H5 A2 2 0 0 1 3 13 V6 A2 2 0 0 1 5 4 Z" fill="none" stroke="#0a0a0a" stroke-width="1.6" stroke-linejoin="round"/><circle cx="8" cy="9.5" r="1.15" fill="#0a0a0a"/><circle cx="12" cy="9.5" r="1.15" fill="#0a0a0a"/><circle cx="16" cy="9.5" r="1.15" fill="#0a0a0a"/></g>
</svg>
